<svg xmlns="http://www.w3.org/2000/svg" width="218.953" height="58" viewBox="0 0 218.953 58">
  <g id="Group_16031" data-name="Group 16031" transform="translate(-0.1 1.4)">
    <g id="Group_1" data-name="Group 1" transform="translate(0.1 -1.4)">
      <path id="Path_1" data-name="Path 1" d="M26.9,25.395l-3.357-6.43H6.131l-3.471,6.43H.1L13.187.7h3.3l13.03,24.695ZM15.008,2.805h-.285l-7.454,14H22.4Z" transform="translate(-0.1 -0.643)" fill="#fff"/>
      <path id="Path_2" data-name="Path 2" d="M65.1,25.352V.6h2.219V23.189H86.381v2.162Z" transform="translate(-28.115 -0.6)" fill="#fff"/>
      <path id="Path_3" data-name="Path 3" d="M168.473,25.352V2.762h-.114L154.646,20.4,140.933,2.762h-.114V25.352H138.6V.6h3.471l12.575,16.5L167.278.6h3.414V25.295h-2.219Z" transform="translate(-59.793 -0.6)" fill="#fff"/>
      <path id="Path_4" data-name="Path 4" d="M235.2,25.395l-3.357-6.43H214.431l-3.471,6.43H208.4L221.487.7h3.3l12.973,24.695ZM223.251,2.805h-.285l-7.454,14h15.136Z" transform="translate(-89.876 -0.643)" fill="#fff"/>
      <path id="Path_5" data-name="Path 5" d="M296.345,25.352,275.519,2.762V25.352H273.3V.6h3.186l20.769,22.589V.6h2.219V25.295h-3.13Z" transform="translate(-117.848 -0.6)" fill="#fff"/>
      <path id="Path_6" data-name="Path 6" d="M360,25.395l-3.357-6.43H339.231l-3.471,6.43H333.2L346.287.7h3.3l13.03,24.695ZM348.108,2.805h-.285l-7.454,14H355.5Z" transform="translate(-143.665 -0.643)" fill="#fff"/>
    </g>
    <text id="Retails_" data-name="Retails " transform="translate(81.1 50.6)" fill="#fff" font-size="14" font-family="Heebo-Regular, Heebo"><tspan x="0" y="0">RETAILS </tspan></text>
    <line id="Line_243" data-name="Line 243" x2="112" transform="translate(53.6 33.1)" fill="none" stroke="#343434" stroke-width="1"/>
  </g>
</svg>
