<?xml version="1.0" encoding="utf-8"?>
<!-- Generator: Adobe Illustrator 16.0.0, SVG Export Plug-In . SVG Version: 6.00 Build 0)  -->
<!DOCTYPE svg PUBLIC "-//W3C//DTD SVG 1.1//EN" "http://www.w3.org/Graphics/SVG/1.1/DTD/svg11.dtd">
<svg version="1.1" id="Layer_1" xmlns="http://www.w3.org/2000/svg" xmlns:xlink="http://www.w3.org/1999/xlink" x="0px" y="0px"
	 width="500px" height="500px" viewBox="0 0 500 500" enable-background="new 0 0 500 500" xml:space="preserve">
<linearGradient id="SVGID_1_" gradientUnits="userSpaceOnUse" x1="297.6602" y1="-158.4526" x2="297.6601" y2="317.9761" gradientTransform="matrix(1 0 0 -1 -47.6602 330.04)">
	<stop  offset="0.1823" style="stop-color:#25215C"/>
	<stop  offset="0.2956" style="stop-color:#4D1E57"/>
	<stop  offset="0.429" style="stop-color:#7F224D"/>
	<stop  offset="0.5499" style="stop-color:#AA2240"/>
	<stop  offset="0.6538" style="stop-color:#CA2031"/>
	<stop  offset="0.7367" style="stop-color:#E12229"/>
	<stop  offset="0.7882" style="stop-color:#EC2227"/>
</linearGradient>
<path fill="none" stroke="url(#SVGID_1_)" stroke-width="13" stroke-miterlimit="10" d="M481.713,416.313
	c0,36.272-29.408,65.681-65.682,65.681H83.97c-36.276,0-65.684-29.407-65.684-65.681V84.245c0-36.273,29.408-65.681,65.684-65.681
	h332.062c36.272,0,65.682,29.408,65.682,65.681L481.713,416.313L481.713,416.313z"/>
<g>
	<path fill="#333333" d="M117.188,395.557h-9.949v-9.583H87.339v9.583h-9.915v-28.716c0-2.649,0.52-5.137,1.56-7.463
		s2.455-4.357,4.247-6.094c1.791-1.736,3.894-3.105,6.309-4.107c2.415-1.001,4.998-1.502,7.748-1.502s5.333,0.501,7.748,1.502
		c2.415,1.002,4.524,2.371,6.327,4.107c1.802,1.736,3.224,3.768,4.264,6.094s1.56,4.813,1.56,7.463V395.557z M107.238,376.424
		v-9.583c0-1.313-0.26-2.555-0.78-3.724c-0.52-1.168-1.23-2.187-2.132-3.055s-1.958-1.553-3.172-2.054s-2.502-0.751-3.866-0.751
		s-2.652,0.25-3.865,0.751s-2.271,1.186-3.172,2.054s-1.612,1.887-2.132,3.055c-0.52,1.169-0.78,2.41-0.78,3.724v9.583H107.238z"/>
	<path fill="#333333" d="M163.738,390.648c-2.311,1.914-4.9,3.384-7.765,4.407c-2.866,1.023-5.836,1.536-8.91,1.536
		c-2.357,0-4.628-0.295-6.812-0.885s-4.229-1.425-6.136-2.505c-1.907-1.079-3.646-2.376-5.218-3.89s-2.918-3.188-4.039-5.025
		c-1.121-1.836-1.988-3.807-2.6-5.91s-0.918-4.29-0.918-6.562c0-2.271,0.306-4.462,0.918-6.577s1.479-4.091,2.6-5.927
		c1.121-1.837,2.467-3.512,4.039-5.025s3.311-2.811,5.218-3.891c1.906-1.079,3.952-1.914,6.136-2.504s4.455-0.885,6.812-0.885
		c3.074,0,6.043,0.507,8.91,1.52c2.865,1.013,5.454,2.487,7.765,4.424l-5.269,8.348c-1.456-1.514-3.178-2.677-5.166-3.489
		c-1.988-0.813-4.068-1.219-6.24-1.219c-2.196,0-4.252,0.4-6.17,1.202c-1.919,0.801-3.594,1.887-5.027,3.256
		c-1.433,1.368-2.565,2.982-3.397,4.841c-0.832,1.859-1.248,3.835-1.248,5.927c0,2.093,0.416,4.058,1.248,5.894
		c0.832,1.837,1.964,3.445,3.397,4.825c1.433,1.381,3.108,2.471,5.027,3.272c1.918,0.802,3.975,1.202,6.17,1.202
		c2.172,0,4.252-0.406,6.24-1.219c1.987-0.813,3.709-1.976,5.166-3.489L163.738,390.648z"/>
	<path fill="#333333" d="M205.99,390.648c-2.311,1.914-4.9,3.384-7.765,4.407c-2.866,1.023-5.836,1.536-8.91,1.536
		c-2.357,0-4.628-0.295-6.812-0.885s-4.229-1.425-6.136-2.505c-1.907-1.079-3.646-2.376-5.218-3.89s-2.918-3.188-4.039-5.025
		c-1.121-1.836-1.988-3.807-2.6-5.91s-0.918-4.29-0.918-6.562c0-2.271,0.306-4.462,0.918-6.577s1.479-4.091,2.6-5.927
		c1.121-1.837,2.467-3.512,4.039-5.025s3.311-2.811,5.218-3.891c1.906-1.079,3.952-1.914,6.136-2.504s4.455-0.885,6.812-0.885
		c3.074,0,6.043,0.507,8.91,1.52c2.865,1.013,5.454,2.487,7.765,4.424l-5.269,8.348c-1.456-1.514-3.178-2.677-5.166-3.489
		c-1.988-0.813-4.068-1.219-6.24-1.219c-2.196,0-4.252,0.4-6.17,1.202c-1.919,0.801-3.594,1.887-5.027,3.256
		c-1.433,1.368-2.565,2.982-3.397,4.841c-0.832,1.859-1.248,3.835-1.248,5.927c0,2.093,0.416,4.058,1.248,5.894
		c0.832,1.837,1.964,3.445,3.397,4.825c1.433,1.381,3.108,2.471,5.027,3.272c1.918,0.802,3.975,1.202,6.17,1.202
		c2.172,0,4.252-0.406,6.24-1.219c1.987-0.813,3.709-1.976,5.166-3.489L205.99,390.648z"/>
	<path fill="#333333" d="M257.256,371.815c0,2.271-0.307,4.458-0.918,6.562c-0.613,2.104-1.475,4.074-2.584,5.91
		c-1.109,1.837-2.449,3.512-4.021,5.025s-3.305,2.811-5.2,3.89c-1.895,1.08-3.94,1.915-6.136,2.505
		c-2.196,0.59-4.472,0.885-6.83,0.885s-4.628-0.295-6.812-0.885s-4.229-1.425-6.136-2.505c-1.907-1.079-3.646-2.376-5.218-3.89
		s-2.918-3.188-4.039-5.025c-1.121-1.836-1.988-3.807-2.6-5.91s-0.918-4.29-0.918-6.562c0-2.271,0.306-4.462,0.918-6.577
		s1.479-4.085,2.6-5.91c1.121-1.825,2.467-3.495,4.039-5.009s3.311-2.805,5.218-3.873c1.906-1.069,3.952-1.897,6.136-2.488
		c2.184-0.589,4.455-0.885,6.812-0.885s4.634,0.296,6.83,0.885c2.195,0.591,4.241,1.419,6.136,2.488
		c1.895,1.068,3.628,2.359,5.2,3.873s2.912,3.184,4.021,5.009s1.971,3.795,2.584,5.91
		C256.949,367.354,257.256,369.545,257.256,371.815z M247.375,371.815c0-2.092-0.416-4.067-1.248-5.927
		c-0.832-1.858-1.958-3.473-3.38-4.841c-1.421-1.369-3.097-2.455-5.027-3.256c-1.93-0.802-3.981-1.202-6.153-1.202
		c-2.196,0-4.252,0.4-6.17,1.202c-1.919,0.801-3.594,1.887-5.027,3.256c-1.433,1.368-2.565,2.982-3.397,4.841
		c-0.832,1.859-1.248,3.835-1.248,5.927c0,2.093,0.416,4.058,1.248,5.894c0.832,1.837,1.964,3.445,3.397,4.825
		c1.433,1.381,3.108,2.471,5.027,3.272c1.918,0.802,3.975,1.202,6.17,1.202c2.172,0,4.224-0.4,6.153-1.202s3.605-1.892,5.027-3.272
		c1.421-1.38,2.548-2.988,3.38-4.825C246.959,375.873,247.375,373.908,247.375,371.815z"/>
	<path fill="#333333" d="M301.207,376.424c0,2.649-0.521,5.137-1.561,7.463s-2.461,4.353-4.264,6.077
		c-1.803,1.726-3.912,3.089-6.327,4.09c-2.415,1.002-4.998,1.503-7.748,1.503s-5.333-0.501-7.748-1.503
		c-2.415-1.001-4.519-2.364-6.31-4.09c-1.791-1.725-3.206-3.751-4.246-6.077s-1.561-4.813-1.561-7.463v-28.749h9.915v28.749
		c0,1.313,0.26,2.549,0.78,3.706c0.52,1.158,1.23,2.171,2.132,3.039s1.959,1.553,3.172,2.054c1.214,0.5,2.502,0.751,3.865,0.751
		s2.652-0.251,3.865-0.751c1.214-0.501,2.271-1.186,3.173-2.054c0.9-0.868,1.611-1.881,2.132-3.039
		c0.52-1.157,0.779-2.393,0.779-3.706v-28.749h9.95V376.424z"/>
	<path fill="#333333" d="M347.827,395.557h-10.644l-19.17-31.521v31.521h-9.95v-47.882h10.644l19.17,31.554v-31.554h9.95V395.557z"
		/>
	<path fill="#333333" d="M376.143,395.557h-9.915v-38.299h-14.941v-9.583h39.763v9.583h-14.906V395.557z"/>
	<path fill="#333333" d="M391.284,362.032c0-1.98,0.394-3.84,1.179-5.576c0.786-1.736,1.855-3.256,3.207-4.558
		c1.353-1.303,2.93-2.332,4.732-3.089c1.803-0.756,3.731-1.135,5.789-1.135h22.811v9.583h-22.811c-0.693,0-1.341,0.122-1.941,0.367
		c-0.602,0.245-1.127,0.584-1.577,1.019c-0.451,0.434-0.804,0.94-1.058,1.519c-0.255,0.579-0.381,1.202-0.381,1.87
		s0.126,1.297,0.381,1.887c0.254,0.59,0.606,1.102,1.058,1.536c0.45,0.434,0.976,0.773,1.577,1.019
		c0.601,0.245,1.248,0.367,1.941,0.367h9.949c2.057,0,3.992,0.373,5.807,1.118c1.814,0.746,3.397,1.77,4.75,3.072
		c1.352,1.302,2.414,2.827,3.188,4.574c0.774,1.748,1.162,3.612,1.162,5.593c0,1.982-0.388,3.841-1.162,5.577
		c-0.774,1.735-1.837,3.255-3.188,4.558c-1.353,1.302-2.936,2.332-4.75,3.088c-1.814,0.758-3.75,1.136-5.807,1.136h-22.083v-9.583
		h22.083c0.693,0,1.34-0.122,1.941-0.367c0.601-0.245,1.127-0.585,1.577-1.019c0.451-0.435,0.803-0.94,1.058-1.52
		c0.254-0.578,0.382-1.202,0.382-1.87c0-0.667-0.128-1.29-0.382-1.869c-0.255-0.579-0.606-1.086-1.058-1.52
		c-0.45-0.435-0.977-0.773-1.577-1.019c-0.602-0.244-1.248-0.367-1.941-0.367h-9.949c-2.058,0-3.986-0.378-5.789-1.136
		c-1.803-0.756-3.38-1.786-4.732-3.088c-1.352-1.303-2.421-2.827-3.207-4.575C391.678,365.878,391.284,364.014,391.284,362.032z"/>
</g>
<g>
	<linearGradient id="SVGID_2_" gradientUnits="userSpaceOnUse" x1="155.0015" y1="206.8291" x2="350.3145" y2="206.8291">
		<stop  offset="0.1823" style="stop-color:#26215D"/>
		<stop  offset="0.2956" style="stop-color:#4D1E57"/>
		<stop  offset="0.429" style="stop-color:#7F214D"/>
		<stop  offset="0.5499" style="stop-color:#AA2140"/>
		<stop  offset="0.6538" style="stop-color:#C92031"/>
		<stop  offset="0.7367" style="stop-color:#E12129"/>
		<stop  offset="0.7882" style="stop-color:#EC2227"/>
	</linearGradient>
	<path fill="url(#SVGID_2_)" d="M252.658,85.881c0,0-28.996,42.201-97.657,42.201c0,0,0,51.471,0,77.854
		c0.979,42.798,4.479,78.833,97.657,121.84c93.178-43.007,96.678-79.042,97.656-121.84c0-26.383,0-77.854,0-77.854
		C281.654,128.083,252.658,85.881,252.658,85.881z"/>
	<path fill="#FFFFFF" d="M252.653,146.897c34.108,0,61.765,27.647,61.765,61.759c0,34.108-27.656,61.759-61.765,61.759
		c-34.107,0-61.759-27.65-61.759-61.759C190.895,174.544,218.546,146.897,252.653,146.897z"/>
	<path fill="#FFFFFF" d="M261.3,222.106c10.32-3.575,17.732-13.379,17.732-24.914c0-14.572-11.811-26.379-26.374-26.379
		c-14.567,0-26.375,11.807-26.375,26.379c0,11.535,7.413,21.339,17.733,24.914c-16.976,1.995-31.966,9.763-42.58,21.063
		c11.099,16.438,29.9,27.246,51.221,27.246c21.325,0,40.131-10.805,51.221-27.246C293.266,231.87,278.275,224.101,261.3,222.106z"/>
	<path fill="#F0562E" d="M350.314,122.936c-33.925,0-57.494-10.845-71.296-19.95c-14.985-9.893-22.06-19.928-22.117-20.021
		c-0.957-1.394-2.542-2.222-4.234-2.222c-0.004,0-0.009,0-0.014,0c-1.688,0-3.272,0.828-4.229,2.213
		c-0.067,0.102-7.141,10.137-22.126,20.03c-13.802,9.104-37.371,19.95-71.296,19.95c-2.844,0-5.146,2.306-5.146,5.146v77.854
		c0,0.041,0,0.08,0,0.125c0.521,22.684,2.017,43.123,15.07,63.496c14.513,22.665,41.711,42.646,85.573,62.895
		c0.686,0.312,1.421,0.468,2.159,0.468c0.734,0,1.474-0.156,2.159-0.468c43.861-20.248,71.056-40.229,85.573-62.895
		c13.055-20.373,14.549-40.812,15.07-63.496c0-0.045,0-0.084,0-0.125v-77.854C355.466,125.242,353.159,122.936,350.314,122.936z
		 M345.169,205.878c-0.5,21.833-1.821,39.988-13.437,58.122c-13.188,20.577-38.343,39.071-79.074,58.101
		c-40.732-19.029-65.886-37.523-79.069-58.101c-11.621-18.133-12.942-36.289-13.441-58.122v-72.729
		c34.014-1.046,57.966-12.341,72.284-21.877c9.688-6.456,16.33-12.933,20.226-17.261c3.896,4.328,10.538,10.805,20.226,17.261
		c14.322,9.536,38.271,20.832,72.285,21.877V205.878L345.169,205.878z"/>
	<path fill="#FFFFFF" d="M229.294,129.552c-1.313-2.52-4.421-3.5-6.945-2.19c-13.917,7.248-29.589,12.101-46.564,14.434
		c-2.822,0.388-4.787,2.983-4.403,5.801c0.356,2.578,2.56,4.447,5.093,4.447c0.231,0,0.472-0.018,0.708-0.048
		c18.151-2.494,34.949-7.711,49.921-15.507C229.623,135.179,230.603,132.072,229.294,129.552z"/>
	<path fill="#FFFFFF" d="M239.021,128.398c1.024,0,2.062-0.311,2.965-0.943c0.69-0.495,1.367-0.979,2.021-1.461
		c2.284-1.687,2.774-4.91,1.091-7.194c-1.688-2.292-4.911-2.778-7.195-1.091c-0.601,0.441-1.22,0.887-1.852,1.335
		c-2.324,1.639-2.876,4.849-1.237,7.172C235.812,127.637,237.41,128.398,239.021,128.398z"/>
	<linearGradient id="SVGID_3_" gradientUnits="userSpaceOnUse" x1="185.752" y1="208.6563" x2="319.5645" y2="208.6563">
		<stop  offset="0.1823" style="stop-color:#26215D"/>
		<stop  offset="0.2956" style="stop-color:#4D1E57"/>
		<stop  offset="0.429" style="stop-color:#7F214D"/>
		<stop  offset="0.5499" style="stop-color:#AA2140"/>
		<stop  offset="0.6538" style="stop-color:#C92031"/>
		<stop  offset="0.7367" style="stop-color:#E12129"/>
		<stop  offset="0.7882" style="stop-color:#EC2227"/>
	</linearGradient>
	<path fill="url(#SVGID_3_)" d="M185.752,208.661c0,36.89,30.016,66.906,66.906,66.906c36.891,0,66.906-30.016,66.906-66.906
		c0-36.899-30.016-66.915-66.906-66.915C215.768,141.746,185.752,171.762,185.752,208.661z M252.658,265.269
		c-18,0-34.067-8.445-44.441-21.578c9.795-9.043,22.554-14.848,36.396-16.469c2.382-0.281,4.261-2.168,4.519-4.555
		c0.254-2.382-1.163-4.634-3.433-5.418c-8.535-2.956-14.273-11.019-14.273-20.057c0-11.709,9.527-21.232,21.232-21.232
		c11.705,0,21.232,9.523,21.232,21.232c0,9.038-5.739,17.091-14.273,20.057c-2.271,0.784-3.696,3.036-3.433,5.418
		c0.258,2.386,2.132,4.274,4.515,4.555c13.841,1.621,26.604,7.426,36.4,16.469C286.721,256.823,270.658,265.269,252.658,265.269z
		 M309.271,208.661c0,9.487-2.35,18.437-6.49,26.299c-8.006-7.026-17.564-12.256-27.985-15.329
		c5.876-5.801,9.389-13.819,9.389-22.438c0-17.386-14.145-31.525-31.525-31.525s-31.525,14.14-31.525,31.525
		c0,8.62,3.513,16.637,9.389,22.438c-10.422,3.072-19.986,8.303-27.986,15.329c-4.141-7.858-6.491-16.812-6.491-26.299
		c0-31.222,25.395-56.617,56.613-56.617C283.877,152.043,309.271,177.438,309.271,208.661z"/>
</g>
</svg>
