<?xml version="1.0" encoding="utf-8"?>
<!-- Generator: Adobe Illustrator 16.0.0, SVG Export Plug-In . SVG Version: 6.00 Build 0)  -->
<!DOCTYPE svg PUBLIC "-//W3C//DTD SVG 1.1//EN" "http://www.w3.org/Graphics/SVG/1.1/DTD/svg11.dtd">
<svg version="1.1" id="Layer_1" xmlns="http://www.w3.org/2000/svg" xmlns:xlink="http://www.w3.org/1999/xlink" x="0px" y="0px"
	 width="100px" height="100px" viewBox="0 0 100 100" enable-background="new 0 0 100 100" xml:space="preserve">
<g>
	<g>
		<polygon fill="#6D2128" points="258.783,95.799 266.923,95.799 266.923,67.31 258.783,67.31 		"/>
		<polygon fill="#DD372D" points="288.291,94.273 280.151,95.799 275.188,67.705 283.203,66.291 		"/>
		<g>
			<polygon fill="#FFFFFF" points="260.819,79.01 264.889,79.01 264.889,70.87 260.819,70.87 			"/>
			<path fill="#FFFFFF" d="M264.889,91.729c0-1.123-0.911-2.035-2.035-2.035c-1.123,0-2.034,0.912-2.034,2.035
				c0,1.125,0.911,2.035,2.034,2.035C263.978,93.764,264.889,92.854,264.889,91.729"/>
		</g>
		<g>
			<polygon fill="#CDD1D3" points="260.819,77.484 264.889,77.484 264.889,76.467 260.819,76.467 			"/>
			<polygon fill="#CDD1D3" points="260.819,75.449 264.889,75.449 264.889,74.432 260.819,74.432 			"/>
			<polygon fill="#CDD1D3" points="260.819,73.414 264.889,73.414 264.889,72.396 260.819,72.396 			"/>
		</g>
		<polygon fill="#B12925" points="266.923,95.799 275.064,95.799 275.064,67.31 266.923,67.31 		"/>
		<g>
			<polygon fill="#FFFFFF" points="268.959,79.01 273.028,79.01 273.028,70.87 268.959,70.87 			"/>
			<path fill="#FFFFFF" d="M273.028,91.729c0-1.123-0.91-2.035-2.035-2.035c-1.124,0-2.034,0.912-2.034,2.035
				c0,1.125,0.91,2.035,2.034,2.035C272.118,93.764,273.028,92.854,273.028,91.729"/>
		</g>
		<g>
			<polygon fill="#CDD1D3" points="268.959,77.484 273.028,77.484 273.028,76.467 268.959,76.467 			"/>
			<polygon fill="#CDD1D3" points="268.959,75.449 273.028,75.449 273.028,74.432 268.959,74.432 			"/>
			<polygon fill="#CDD1D3" points="268.959,73.414 273.028,73.414 273.028,72.396 268.959,72.396 			"/>
		</g>
		<g>
			<polygon fill="#FFFFFF" points="283.232,78.169 279.224,78.875 277.81,70.859 281.818,70.152 			"/>
			<path fill="#FFFFFF" d="M285.441,90.693c-0.196-1.106-1.252-1.846-2.358-1.65s-1.847,1.251-1.651,2.357
				c0.195,1.107,1.251,1.846,2.357,1.651C284.896,92.856,285.636,91.801,285.441,90.693"/>
		</g>
		<g>
			<polygon fill="#CDD1D3" points="278.958,77.372 278.781,76.37 282.79,75.664 282.967,76.665 			"/>
			<polygon fill="#CDD1D3" points="278.604,75.367 278.429,74.366 282.437,73.66 282.613,74.661 			"/>
			<polygon fill="#CDD1D3" points="278.251,73.364 278.074,72.362 282.084,71.655 282.26,72.656 			"/>
		</g>
	</g>
	<path fill="none" stroke="#DD372D" stroke-width="3" stroke-miterlimit="10" d="M297.056,100.369c0,3.317-2.689,6.007-6.007,6.007
		h-36.04c-3.317,0-6.007-2.689-6.007-6.007v-36.04c0-3.317,2.689-6.007,6.007-6.007h36.04c3.317,0,6.007,2.689,6.007,6.007V100.369z
		"/>
</g>
<g>
	<g>
		<path fill="#171617" d="M22.962,92.899c0,0.277-0.091,0.504-0.272,0.681c-0.182,0.176-0.39,0.264-0.624,0.264
			c-0.192,0-0.365-0.059-0.52-0.176s-0.275-0.277-0.36-0.48l-0.832-1.936h-4.768l-0.832,1.952c-0.075,0.202-0.189,0.359-0.344,0.472
			c-0.155,0.112-0.323,0.168-0.504,0.168c-0.277,0-0.488-0.075-0.632-0.224c-0.144-0.149-0.216-0.353-0.216-0.608
			c0-0.096,0.016-0.197,0.048-0.304l3.984-9.568c0.085-0.213,0.213-0.379,0.384-0.496c0.17-0.117,0.362-0.165,0.576-0.144
			c0.192,0,0.371,0.056,0.536,0.168c0.165,0.111,0.285,0.27,0.36,0.472l3.936,9.376C22.935,92.654,22.962,92.782,22.962,92.899z
			 M16.37,89.412h3.2l-1.616-3.744L16.37,89.412z"/>
		<path fill="#171617" d="M32.578,83.924c0,0.224-0.08,0.442-0.24,0.656c-0.17,0.224-0.389,0.336-0.656,0.336
			c-0.182,0-0.363-0.049-0.544-0.145c-0.523-0.245-1.088-0.368-1.696-0.368c-0.747,0-1.397,0.158-1.952,0.473
			c-0.555,0.314-0.982,0.757-1.28,1.328c-0.299,0.57-0.448,1.224-0.448,1.96c0,1.259,0.338,2.213,1.016,2.863
			c0.677,0.651,1.565,0.977,2.664,0.977c0.65,0,1.216-0.123,1.696-0.368c0.192-0.085,0.362-0.128,0.512-0.128
			c0.277,0,0.512,0.117,0.704,0.352c0.16,0.203,0.24,0.422,0.24,0.656c0,0.171-0.042,0.325-0.128,0.464s-0.208,0.246-0.368,0.32
			c-0.832,0.416-1.718,0.624-2.656,0.624c-1.045,0-2.005-0.222-2.88-0.664c-0.875-0.442-1.574-1.096-2.096-1.96
			s-0.784-1.909-0.784-3.136c0-1.089,0.248-2.064,0.744-2.929c0.496-0.863,1.182-1.538,2.056-2.023s1.861-0.729,2.96-0.729
			c0.949,0,1.83,0.208,2.64,0.624C32.413,83.278,32.578,83.551,32.578,83.924z"/>
		<path fill="#171617" d="M42.61,83.924c0,0.224-0.08,0.442-0.24,0.656c-0.17,0.224-0.389,0.336-0.656,0.336
			c-0.182,0-0.363-0.049-0.544-0.145c-0.523-0.245-1.088-0.368-1.696-0.368c-0.747,0-1.397,0.158-1.952,0.473
			c-0.555,0.314-0.982,0.757-1.28,1.328c-0.299,0.57-0.448,1.224-0.448,1.96c0,1.259,0.338,2.213,1.016,2.863
			c0.677,0.651,1.565,0.977,2.664,0.977c0.65,0,1.216-0.123,1.696-0.368c0.192-0.085,0.362-0.128,0.512-0.128
			c0.277,0,0.512,0.117,0.704,0.352c0.16,0.203,0.24,0.422,0.24,0.656c0,0.171-0.042,0.325-0.128,0.464s-0.208,0.246-0.368,0.32
			c-0.832,0.416-1.718,0.624-2.656,0.624c-1.045,0-2.005-0.222-2.88-0.664c-0.875-0.442-1.574-1.096-2.096-1.96
			s-0.784-1.909-0.784-3.136c0-1.089,0.248-2.064,0.744-2.929c0.496-0.863,1.182-1.538,2.056-2.023s1.861-0.729,2.96-0.729
			c0.949,0,1.83,0.208,2.64,0.624C42.444,83.278,42.61,83.551,42.61,83.924z"/>
		<path fill="#171617" d="M53.906,91.067c-0.471,0.88-1.117,1.576-1.943,2.088c-0.828,0.513-1.758,0.769-2.792,0.769
			c-1.035,0-1.966-0.256-2.792-0.769c-0.827-0.512-1.473-1.208-1.937-2.088s-0.696-1.848-0.696-2.903
			c0-1.057,0.232-2.024,0.696-2.904s1.109-1.576,1.937-2.088c0.826-0.512,1.757-0.769,2.792-0.769c1.034,0,1.964,0.257,2.792,0.769
			c0.826,0.512,1.473,1.208,1.943,2.088c0.469,0.88,0.703,1.848,0.703,2.904C54.609,89.22,54.375,90.188,53.906,91.067z
			 M52.098,86.22c-0.287-0.581-0.688-1.043-1.2-1.384c-0.512-0.342-1.088-0.513-1.728-0.513c-0.651,0-1.229,0.168-1.736,0.505
			c-0.507,0.336-0.901,0.797-1.185,1.384c-0.282,0.587-0.423,1.237-0.423,1.952s0.141,1.365,0.423,1.951
			c0.283,0.587,0.678,1.049,1.185,1.385s1.085,0.504,1.736,0.504c0.64,0,1.216-0.171,1.728-0.513c0.512-0.341,0.913-0.802,1.2-1.384
			c0.289-0.581,0.432-1.229,0.432-1.943S52.387,86.801,52.098,86.22z"/>
		<path fill="#171617" d="M65.074,82.819c0.17,0.182,0.256,0.416,0.256,0.704v5.792c0,0.886-0.188,1.67-0.561,2.353
			s-0.896,1.216-1.568,1.6s-1.439,0.576-2.303,0.576c-0.865,0-1.635-0.192-2.313-0.576s-1.203-0.917-1.576-1.6
			s-0.561-1.467-0.561-2.353v-5.792c0-0.277,0.096-0.509,0.289-0.695c0.191-0.187,0.436-0.28,0.734-0.28
			c0.258,0,0.48,0.094,0.674,0.28c0.191,0.187,0.287,0.418,0.287,0.695v5.792c0,0.513,0.111,0.968,0.336,1.368
			s0.525,0.707,0.904,0.92c0.379,0.214,0.787,0.32,1.225,0.32c0.457,0,0.887-0.106,1.287-0.32c0.4-0.213,0.721-0.52,0.961-0.92
			c0.238-0.4,0.359-0.855,0.359-1.368v-5.792c0-0.288,0.08-0.522,0.24-0.704c0.16-0.181,0.377-0.271,0.656-0.271
			C64.68,82.548,64.902,82.639,65.074,82.819z"/>
		<path fill="#171617" d="M76.85,82.819c0.16,0.171,0.24,0.385,0.24,0.641v9.328c0,0.277-0.094,0.509-0.279,0.695
			c-0.188,0.188-0.42,0.28-0.697,0.28c-0.148,0-0.295-0.024-0.439-0.072s-0.248-0.114-0.313-0.2l-5.871-7.455v6.831
			c0,0.257-0.084,0.47-0.248,0.641c-0.166,0.171-0.383,0.256-0.648,0.256c-0.256,0-0.465-0.085-0.623-0.256
			c-0.16-0.171-0.24-0.384-0.24-0.641V83.54c0-0.277,0.092-0.51,0.279-0.696c0.186-0.187,0.418-0.28,0.695-0.28
			c0.16,0,0.318,0.032,0.473,0.097c0.154,0.063,0.27,0.149,0.344,0.256l5.824,7.424v-6.88c0-0.256,0.082-0.47,0.248-0.641
			c0.166-0.17,0.377-0.256,0.633-0.256S76.689,82.649,76.85,82.819z"/>
		<path fill="#171617" d="M87.553,82.819c0.182,0.171,0.273,0.396,0.273,0.672c0,0.278-0.092,0.499-0.273,0.664
			c-0.182,0.166-0.416,0.248-0.703,0.248h-2.512v8.385c0,0.277-0.102,0.509-0.305,0.695c-0.203,0.188-0.453,0.28-0.752,0.28
			s-0.543-0.093-0.736-0.28c-0.191-0.187-0.287-0.418-0.287-0.695v-8.385h-2.512c-0.289,0-0.523-0.085-0.705-0.256
			c-0.182-0.17-0.271-0.395-0.271-0.672c0-0.267,0.094-0.485,0.279-0.656c0.188-0.17,0.42-0.256,0.697-0.256h7.104
			C87.137,82.563,87.371,82.649,87.553,82.819z"/>
	</g>
</g>
<g>
	<linearGradient id="SVGID_1_" gradientUnits="userSpaceOnUse" x1="28.8193" y1="76.7275" x2="72.3827" y2="1.2736">
		<stop  offset="0.1823" style="stop-color:#25215C"/>
		<stop  offset="0.2956" style="stop-color:#4D1E57"/>
		<stop  offset="0.429" style="stop-color:#7F224D"/>
		<stop  offset="0.5499" style="stop-color:#AA2240"/>
		<stop  offset="0.6538" style="stop-color:#CA2031"/>
		<stop  offset="0.7367" style="stop-color:#E12229"/>
		<stop  offset="0.7882" style="stop-color:#EC2227"/>
	</linearGradient>
	<path fill="none" stroke="url(#SVGID_1_)" stroke-width="4" stroke-miterlimit="10" d="M83.211,63.457
		c0,4.504-3.65,8.153-8.152,8.153H26.144c-4.502,0-8.152-3.649-8.152-8.153V14.542c0-4.502,3.649-8.152,8.152-8.152h48.915
		c4.502,0,8.152,3.65,8.152,8.152V63.457z"/>
	<g>
		<g>
			<linearGradient id="SVGID_2_" gradientUnits="userSpaceOnUse" x1="39.6802" y1="58.043" x2="60.7548" y2="21.5407">
				<stop  offset="0.1823" style="stop-color:#25215C"/>
				<stop  offset="0.2956" style="stop-color:#4D1E57"/>
				<stop  offset="0.429" style="stop-color:#7F224D"/>
				<stop  offset="0.5499" style="stop-color:#AA2240"/>
				<stop  offset="0.6538" style="stop-color:#CA2031"/>
				<stop  offset="0.7367" style="stop-color:#E12229"/>
				<stop  offset="0.7882" style="stop-color:#EC2227"/>
			</linearGradient>
			<path fill="url(#SVGID_2_)" d="M66.576,25.43h-6.871l-1.263-3.789c-0.155-0.467-0.593-0.782-1.085-0.782H43.646
				c-0.492,0-0.929,0.315-1.084,0.782l-1.263,3.789h-6.87c-1.89,0-3.428,1.538-3.428,3.428v6.856c0,0.434,0.246,0.83,0.634,1.023
				l0.509,0.253v14.721c0,1.891,1.538,3.429,3.428,3.429h29.863c1.89,0,3.428-1.538,3.428-3.429V36.991l0.509-0.253
				c0.388-0.193,0.634-0.589,0.634-1.023v-6.856C70.004,26.968,68.466,25.43,66.576,25.43z M44.47,23.145h12.065l0.762,2.285H43.708
				L44.47,23.145z M66.576,51.712c0,0.631-0.513,1.144-1.143,1.144H35.571c-0.63,0-1.143-0.513-1.143-1.144V38.127l10.444,5.193
				c0.343,1.531,1.712,2.679,3.345,2.679h4.57c1.633,0,3.002-1.147,3.345-2.679l10.444-5.193V51.712z M47.074,42.57
				c0-0.63,0.513-1.143,1.143-1.143h4.57c0.631,0,1.143,0.513,1.143,1.143c0,0.631-0.512,1.144-1.143,1.144h-4.57
				C47.586,43.714,47.074,43.201,47.074,42.57z M67.719,35.007l-11.92,5.927c-0.582-1.066-1.714-1.791-3.012-1.791h-4.57
				c-1.298,0-2.43,0.725-3.011,1.791l-11.92-5.927v-6.148c0-0.63,0.513-1.143,1.143-1.143c0.721,0,31.465,0,32.148,0
				c0.63,0,1.143,0.513,1.143,1.143V35.007z"/>
		</g>
	</g>
</g>
</svg>
