<?xml version="1.0" encoding="utf-8"?>
<!-- Generator: Adobe Illustrator 16.0.0, SVG Export Plug-In . SVG Version: 6.00 Build 0)  -->
<!DOCTYPE svg PUBLIC "-//W3C//DTD SVG 1.1//EN" "http://www.w3.org/Graphics/SVG/1.1/DTD/svg11.dtd">
<svg version="1.1" id="Layer_1" xmlns="http://www.w3.org/2000/svg" xmlns:xlink="http://www.w3.org/1999/xlink" x="0px" y="0px"
	 width="500px" height="500px" viewBox="0 0 500 500" enable-background="new 0 0 500 500" xml:space="preserve">
<linearGradient id="SVGID_1_" gradientUnits="userSpaceOnUse" x1="399.498" y1="509.2158" x2="100.5024" y2="-8.6597">
	<stop  offset="0.1823" style="stop-color:#25215C"/>
	<stop  offset="0.2956" style="stop-color:#4D1E57"/>
	<stop  offset="0.429" style="stop-color:#7F224D"/>
	<stop  offset="0.5499" style="stop-color:#AA2240"/>
	<stop  offset="0.6538" style="stop-color:#CA2031"/>
	<stop  offset="0.7367" style="stop-color:#E12229"/>
	<stop  offset="0.7882" style="stop-color:#EC2227"/>
</linearGradient>
<path fill="none" stroke="url(#SVGID_1_)" stroke-width="13" stroke-miterlimit="10" d="M481.713,416.312
	c0,36.273-29.408,65.681-65.682,65.681H83.97c-36.276,0-65.684-29.407-65.684-65.681V84.245c0-36.273,29.408-65.681,65.684-65.681
	h332.062c36.273,0,65.682,29.408,65.682,65.681V416.312z"/>
<g>
	<path fill="#333333" d="M202.086,376.209c0,2.237-0.299,4.39-0.897,6.457s-1.449,3.999-2.551,5.796
		c-1.103,1.796-2.417,3.435-3.941,4.914c-1.525,1.48-3.226,2.751-5.103,3.813c-1.877,1.063-3.888,1.881-6.035,2.457
		c-2.147,0.576-4.381,0.864-6.704,0.864h-15.202v-48.604h15.202c2.322,0,4.557,0.288,6.704,0.864
		c2.146,0.576,4.158,1.396,6.035,2.458c1.876,1.062,3.577,2.333,5.103,3.813c1.524,1.48,2.838,3.118,3.941,4.915
		c1.103,1.796,1.953,3.728,2.551,5.795C201.787,371.82,202.086,373.972,202.086,376.209z M191.987,376.209
		c0-2.011-0.394-3.897-1.179-5.66c-0.786-1.763-1.865-3.305-3.237-4.626c-1.372-1.322-2.979-2.367-4.821-3.136
		c-1.842-0.768-3.807-1.152-5.894-1.152h-5.032v29.148h5.032c2.087,0,4.052-0.378,5.894-1.136c1.841-0.757,3.449-1.796,4.821-3.118
		c1.373-1.321,2.451-2.869,3.237-4.643C191.593,380.112,191.987,378.221,191.987,376.209z"/>
	<path fill="#333333" d="M258.212,376.412c0,2.305-0.311,4.525-0.932,6.66c-0.622,2.136-1.496,4.136-2.622,5.999
		c-1.126,1.864-2.486,3.565-4.082,5.102c-1.595,1.537-3.355,2.853-5.278,3.948c-1.924,1.097-4,1.943-6.228,2.542
		c-2.229,0.599-4.54,0.898-6.933,0.898c-2.393,0-4.698-0.3-6.915-0.898s-4.293-1.445-6.229-2.542
		c-1.935-1.096-3.701-2.411-5.296-3.948c-1.596-1.536-2.962-3.237-4.1-5.102c-1.138-1.863-2.018-3.863-2.639-5.999
		c-0.622-2.135-0.932-4.355-0.932-6.66s0.311-4.529,0.932-6.677c0.622-2.146,1.501-4.146,2.639-5.999s2.504-3.547,4.1-5.084
		c1.595-1.536,3.361-2.847,5.296-3.932c1.936-1.085,4.012-1.926,6.229-2.525c2.217-0.598,4.522-0.897,6.915-0.897
		c2.393,0,4.704,0.3,6.933,0.897c2.228,0.6,4.304,1.44,6.228,2.525c1.923,1.085,3.683,2.396,5.278,3.932
		c1.596,1.537,2.956,3.231,4.082,5.084s2,3.853,2.622,5.999C257.901,371.883,258.212,374.107,258.212,376.412z M248.184,376.412
		c0-2.123-0.422-4.129-1.267-6.016c-0.844-1.887-1.988-3.525-3.431-4.915s-3.144-2.491-5.103-3.305
		c-1.959-0.813-4.041-1.22-6.246-1.22c-2.229,0-4.316,0.407-6.264,1.22c-1.947,0.813-3.648,1.915-5.102,3.305
		c-1.455,1.39-2.604,3.028-3.449,4.915c-0.844,1.887-1.267,3.893-1.267,6.016c0,2.125,0.422,4.118,1.267,5.982
		c0.845,1.864,1.994,3.497,3.449,4.897c1.454,1.401,3.155,2.509,5.102,3.322s4.035,1.22,6.264,1.22c2.205,0,4.287-0.406,6.246-1.22
		c1.958-0.813,3.66-1.921,5.103-3.322c1.443-1.4,2.586-3.033,3.431-4.897C247.761,380.53,248.184,378.537,248.184,376.412z"/>
	<path fill="#333333" d="M305.119,395.528c-2.347,1.943-4.974,3.435-7.883,4.474s-5.924,1.56-9.043,1.56
		c-2.394,0-4.698-0.3-6.915-0.898s-4.293-1.445-6.229-2.542c-1.936-1.096-3.701-2.411-5.296-3.948
		c-1.596-1.536-2.962-3.237-4.1-5.102c-1.138-1.863-2.018-3.863-2.639-5.999c-0.622-2.135-0.933-4.355-0.933-6.66
		s0.311-4.529,0.933-6.677c0.621-2.146,1.501-4.151,2.639-6.016s2.504-3.564,4.1-5.102c1.595-1.536,3.36-2.853,5.296-3.948
		s4.012-1.943,6.229-2.542s4.521-0.898,6.915-0.898c3.119,0,6.134,0.515,9.043,1.542c2.909,1.028,5.536,2.525,7.883,4.491
		l-5.349,8.474c-1.479-1.536-3.227-2.717-5.243-3.542c-2.019-0.825-4.13-1.237-6.334-1.237c-2.229,0-4.317,0.407-6.264,1.22
		c-1.948,0.813-3.648,1.915-5.103,3.305c-1.455,1.39-2.604,3.028-3.448,4.915c-0.845,1.887-1.268,3.893-1.268,6.016
		c0,2.125,0.423,4.118,1.268,5.982c0.844,1.864,1.993,3.497,3.448,4.897c1.454,1.401,3.154,2.509,5.103,3.322
		c1.946,0.813,4.034,1.22,6.264,1.22c2.204,0,4.315-0.412,6.334-1.237c2.017-0.824,3.765-2.005,5.243-3.542L305.119,395.528z"/>
	<path fill="#333333" d="M307.371,366.481c0-2.011,0.398-3.897,1.196-5.66c0.797-1.763,1.883-3.305,3.255-4.626
		c1.372-1.322,2.974-2.367,4.803-3.136c1.83-0.768,3.789-1.152,5.877-1.152h23.154v9.728h-23.154c-0.704,0-1.36,0.125-1.971,0.373
		c-0.61,0.249-1.144,0.593-1.601,1.034c-0.458,0.44-0.815,0.954-1.073,1.542c-0.259,0.588-0.388,1.22-0.388,1.897
		s0.129,1.316,0.388,1.915c0.258,0.6,0.615,1.119,1.073,1.56c0.457,0.44,0.99,0.785,1.601,1.033c0.61,0.249,1.267,0.373,1.971,0.373
		h10.1c2.087,0,4.052,0.379,5.894,1.136s3.449,1.796,4.821,3.118c1.372,1.321,2.451,2.869,3.237,4.644
		c0.785,1.773,1.179,3.666,1.179,5.677c0,2.012-0.394,3.897-1.179,5.66c-0.786,1.763-1.865,3.305-3.237,4.627
		c-1.372,1.321-2.979,2.367-4.821,3.135c-1.842,0.769-3.807,1.152-5.894,1.152h-22.416v-9.728h22.416
		c0.703,0,1.36-0.124,1.971-0.373c0.609-0.248,1.144-0.593,1.601-1.033s0.814-0.954,1.073-1.542
		c0.258-0.588,0.387-1.221,0.387-1.898s-0.129-1.311-0.387-1.898c-0.259-0.587-0.616-1.102-1.073-1.542s-0.991-0.784-1.601-1.033
		c-0.61-0.249-1.268-0.373-1.971-0.373h-10.1c-2.088,0-4.047-0.384-5.877-1.152c-1.829-0.768-3.431-1.813-4.803-3.135
		c-1.372-1.322-2.458-2.87-3.255-4.644C307.77,370.386,307.371,368.493,307.371,366.481z"/>
</g>
<g>
	<polygon fill="#6D2128" points="133.153,322.794 197.618,322.794 197.618,97.168 133.153,97.168 	"/>
	<polygon fill="#DD372D" points="366.846,310.705 302.381,322.794 263.077,100.291 326.554,89.101 	"/>
	<g>
		<polygon fill="#FFFFFF" points="149.276,189.828 181.507,189.828 181.507,125.367 149.276,125.367 		"/>
		<path fill="#FFFFFF" d="M181.507,290.56c0-8.903-7.217-16.12-16.12-16.12c-8.894,0-16.111,7.217-16.111,16.12
			c0,8.902,7.217,16.114,16.111,16.114C174.29,306.674,181.507,299.462,181.507,290.56"/>
	</g>
	<g>
		<polygon fill="#CDD1D3" points="149.276,177.744 181.507,177.744 181.507,169.682 149.276,169.682 		"/>
		<polygon fill="#CDD1D3" points="149.276,161.624 181.507,161.624 181.507,153.566 149.276,153.566 		"/>
		<polygon fill="#CDD1D3" points="149.276,145.504 181.507,145.504 181.507,137.456 149.276,137.456 		"/>
	</g>
	<polygon fill="#B12925" points="197.618,322.794 262.097,322.794 262.097,97.168 197.618,97.168 	"/>
	<g>
		<polygon fill="#FFFFFF" points="213.742,189.828 245.968,189.828 245.968,125.367 213.742,125.367 		"/>
		<path fill="#FFFFFF" d="M245.968,290.56c0-8.903-7.208-16.12-16.115-16.12c-8.903,0-16.111,7.217-16.111,16.12
			c0,8.902,7.208,16.114,16.111,16.114C238.76,306.674,245.968,299.462,245.968,290.56"/>
	</g>
	<g>
		<polygon fill="#CDD1D3" points="213.742,177.744 245.968,177.744 245.968,169.682 213.742,169.682 		"/>
		<polygon fill="#CDD1D3" points="213.742,161.624 245.968,161.624 245.968,153.566 213.742,153.566 		"/>
		<polygon fill="#CDD1D3" points="213.742,145.504 245.968,145.504 245.968,137.456 213.742,137.456 		"/>
	</g>
	<g>
		<polygon fill="#FFFFFF" points="326.784,183.171 295.036,188.756 283.834,125.272 315.585,119.672 		"/>
		<path fill="#FFFFFF" d="M344.276,282.361c-1.554-8.763-9.914-14.619-18.677-13.069c-8.763,1.546-14.624,9.906-13.078,18.669
			c1.545,8.763,9.906,14.609,18.668,13.078C339.961,299.493,345.818,291.129,344.276,282.361"/>
	</g>
	<g>
		<polygon fill="#CDD1D3" points="292.931,176.858 291.529,168.922 323.281,163.323 324.678,171.258 		"/>
		<polygon fill="#CDD1D3" points="290.129,160.982 288.737,153.056 320.479,147.456 321.88,155.392 		"/>
		<polygon fill="#CDD1D3" points="287.332,145.12 285.931,137.185 317.687,131.585 319.079,139.512 		"/>
	</g>
</g>
</svg>
