<?xml version="1.0" encoding="utf-8"?>
<!-- Generator: Adobe Illustrator 16.0.0, SVG Export Plug-In . SVG Version: 6.00 Build 0)  -->
<!DOCTYPE svg PUBLIC "-//W3C//DTD SVG 1.1//EN" "http://www.w3.org/Graphics/SVG/1.1/DTD/svg11.dtd">
<svg version="1.1" id="Layer_1" xmlns="http://www.w3.org/2000/svg" xmlns:xlink="http://www.w3.org/1999/xlink" x="0px" y="0px"
	 width="100px" height="100px" viewBox="0 0 100 100" enable-background="new 0 0 100 100" xml:space="preserve">
<g>
	<g>
		<polygon fill="#6D2128" points="258.783,95.799 266.923,95.799 266.923,67.311 258.783,67.311 		"/>
		<polygon fill="#DD372D" points="288.291,94.273 280.15,95.799 275.188,67.705 283.203,66.291 		"/>
		<g>
			<polygon fill="#FFFFFF" points="260.818,79.01 264.889,79.01 264.889,70.87 260.818,70.87 			"/>
			<path fill="#FFFFFF" d="M264.889,91.729c0-1.123-0.91-2.035-2.035-2.035c-1.123,0-2.033,0.912-2.033,2.035
				c0,1.125,0.91,2.035,2.033,2.035C263.979,93.764,264.889,92.854,264.889,91.729"/>
		</g>
		<g>
			<polygon fill="#CDD1D3" points="260.818,77.484 264.889,77.484 264.889,76.467 260.818,76.467 			"/>
			<polygon fill="#CDD1D3" points="260.818,75.449 264.889,75.449 264.889,74.432 260.818,74.432 			"/>
			<polygon fill="#CDD1D3" points="260.818,73.414 264.889,73.414 264.889,72.396 260.818,72.396 			"/>
		</g>
		<polygon fill="#B12925" points="266.923,95.799 275.064,95.799 275.064,67.311 266.923,67.311 		"/>
		<g>
			<polygon fill="#FFFFFF" points="268.959,79.01 273.027,79.01 273.027,70.87 268.959,70.87 			"/>
			<path fill="#FFFFFF" d="M273.027,91.729c0-1.123-0.909-2.035-2.034-2.035c-1.124,0-2.034,0.912-2.034,2.035
				c0,1.125,0.91,2.035,2.034,2.035C272.118,93.764,273.027,92.854,273.027,91.729"/>
		</g>
		<g>
			<polygon fill="#CDD1D3" points="268.959,77.484 273.027,77.484 273.027,76.467 268.959,76.467 			"/>
			<polygon fill="#CDD1D3" points="268.959,75.449 273.027,75.449 273.027,74.432 268.959,74.432 			"/>
			<polygon fill="#CDD1D3" points="268.959,73.414 273.027,73.414 273.027,72.396 268.959,72.396 			"/>
		</g>
		<g>
			<polygon fill="#FFFFFF" points="283.232,78.169 279.225,78.875 277.811,70.859 281.818,70.152 			"/>
			<path fill="#FFFFFF" d="M285.441,90.693c-0.196-1.106-1.252-1.846-2.358-1.65c-1.106,0.196-1.847,1.251-1.651,2.357
				s1.252,1.846,2.357,1.65C284.896,92.855,285.636,91.801,285.441,90.693"/>
		</g>
		<g>
			<polygon fill="#CDD1D3" points="278.958,77.372 278.781,76.37 282.79,75.664 282.967,76.665 			"/>
			<polygon fill="#CDD1D3" points="278.604,75.367 278.43,74.366 282.438,73.66 282.613,74.661 			"/>
			<polygon fill="#CDD1D3" points="278.251,73.364 278.074,72.361 282.084,71.654 282.26,72.656 			"/>
		</g>
	</g>
	<path fill="none" stroke="#DD372D" stroke-width="3" stroke-miterlimit="10" d="M297.057,100.369c0,3.316-2.689,6.007-6.008,6.007
		h-36.04c-3.317,0-6.007-2.688-6.007-6.007v-36.04c0-3.317,2.689-6.007,6.007-6.007h36.04c3.317,0,6.008,2.688,6.008,6.007V100.369z
		"/>
</g>
<g>
	<g enable-background="new    ">
		<path fill="#171617" d="M26.534,83.052c0.491,0.325,0.885,0.763,1.184,1.312c0.298,0.55,0.448,1.149,0.448,1.801
			c0,0.64-0.149,1.237-0.448,1.792c-0.299,0.555-0.693,0.994-1.184,1.319c-0.491,0.326-1.008,0.488-1.552,0.488h-2.784v3.024
			c0,0.287-0.085,0.522-0.256,0.703c-0.171,0.182-0.395,0.272-0.672,0.272c-0.267,0-0.485-0.093-0.656-0.28
			c-0.171-0.187-0.256-0.418-0.256-0.695V83.54c0-0.277,0.093-0.51,0.28-0.696s0.418-0.28,0.696-0.28h3.648
			C25.526,82.563,26.043,82.727,26.534,83.052z M25.582,87.684c0.197-0.171,0.357-0.392,0.48-0.664
			c0.123-0.271,0.184-0.557,0.184-0.855s-0.062-0.584-0.184-0.856c-0.123-0.271-0.283-0.49-0.48-0.656
			c-0.197-0.165-0.397-0.248-0.6-0.248h-2.784v3.536h2.784C25.185,87.939,25.385,87.854,25.582,87.684z"/>
		<path fill="#171617" d="M39.118,92.531c0.08,0.14,0.12,0.283,0.12,0.433c0,0.191-0.064,0.368-0.192,0.527
			c-0.16,0.192-0.406,0.288-0.736,0.288c-0.256,0-0.491-0.059-0.704-0.176c-0.768-0.438-1.152-1.328-1.152-2.672
			c0-0.384-0.125-0.688-0.376-0.912c-0.25-0.224-0.611-0.336-1.08-0.336h-2.992v3.104c0,0.287-0.078,0.522-0.232,0.703
			c-0.154,0.182-0.36,0.272-0.616,0.272c-0.31,0-0.579-0.093-0.808-0.28c-0.229-0.187-0.344-0.418-0.344-0.695V83.54
			c0-0.277,0.093-0.51,0.28-0.696s0.418-0.28,0.696-0.28h4.608c0.554,0,1.077,0.149,1.568,0.448c0.49,0.299,0.882,0.709,1.176,1.232
			c0.293,0.522,0.44,1.109,0.44,1.76c0,0.533-0.144,1.054-0.432,1.56c-0.288,0.507-0.662,0.91-1.12,1.208
			c0.672,0.47,1.04,1.099,1.104,1.889c0.032,0.17,0.048,0.336,0.048,0.495c0.042,0.331,0.085,0.568,0.128,0.712
			c0.042,0.145,0.139,0.254,0.288,0.328C38.929,92.281,39.038,92.394,39.118,92.531z M36.07,87.764
			c0.181-0.182,0.331-0.424,0.448-0.728c0.117-0.305,0.176-0.633,0.176-0.984c0-0.299-0.059-0.573-0.176-0.824
			c-0.117-0.25-0.267-0.45-0.448-0.6c-0.182-0.149-0.368-0.225-0.56-0.225h-3.504v3.633h3.504
			C35.702,88.036,35.889,87.945,36.07,87.764z"/>
		<path fill="#171617" d="M42.694,93.483c-0.203,0.188-0.438,0.28-0.704,0.28c-0.288,0-0.525-0.093-0.712-0.28
			c-0.187-0.187-0.28-0.418-0.28-0.695V83.54c0-0.277,0.096-0.51,0.288-0.696c0.192-0.187,0.438-0.28,0.736-0.28
			c0.267,0,0.496,0.094,0.688,0.28s0.288,0.419,0.288,0.696v9.248C42.998,93.065,42.896,93.297,42.694,93.483z"/>
		<path fill="#171617" d="M53.734,83.924c0,0.224-0.08,0.442-0.24,0.656c-0.17,0.224-0.389,0.336-0.656,0.336
			c-0.182,0-0.362-0.049-0.543-0.145c-0.523-0.245-1.089-0.368-1.697-0.368c-0.746,0-1.397,0.158-1.951,0.473
			c-0.555,0.314-0.982,0.757-1.28,1.328c-0.299,0.57-0.448,1.224-0.448,1.96c0,1.259,0.338,2.213,1.016,2.863
			c0.677,0.651,1.565,0.977,2.664,0.977c0.65,0,1.217-0.123,1.697-0.368c0.191-0.085,0.361-0.128,0.512-0.128
			c0.277,0,0.512,0.117,0.703,0.352c0.16,0.203,0.24,0.422,0.24,0.656c0,0.171-0.043,0.325-0.128,0.464s-0.208,0.246-0.368,0.32
			c-0.832,0.416-1.717,0.624-2.656,0.624c-1.045,0-2.005-0.222-2.879-0.664c-0.875-0.442-1.574-1.096-2.096-1.96
			s-0.784-1.909-0.784-3.136c0-1.089,0.248-2.064,0.744-2.929c0.496-0.863,1.182-1.538,2.056-2.023s1.861-0.729,2.959-0.729
			c0.949,0,1.83,0.208,2.641,0.624C53.568,83.278,53.734,83.551,53.734,83.924z"/>
		<path fill="#171617" d="M57.126,93.483c-0.202,0.188-0.438,0.28-0.704,0.28c-0.288,0-0.525-0.093-0.712-0.28
			c-0.187-0.187-0.28-0.418-0.28-0.695V83.54c0-0.277,0.096-0.51,0.288-0.696s0.438-0.28,0.736-0.28c0.267,0,0.496,0.094,0.688,0.28
			c0.191,0.187,0.287,0.419,0.287,0.696v9.248C57.43,93.065,57.328,93.297,57.126,93.483z"/>
		<path fill="#171617" d="M68.949,82.819c0.16,0.171,0.24,0.385,0.24,0.641v9.328c0,0.277-0.094,0.509-0.279,0.695
			c-0.188,0.188-0.419,0.28-0.696,0.28c-0.149,0-0.296-0.024-0.44-0.072c-0.144-0.048-0.248-0.114-0.312-0.2l-5.872-7.455v6.831
			c0,0.257-0.082,0.47-0.248,0.641s-0.381,0.256-0.648,0.256c-0.256,0-0.463-0.085-0.623-0.256s-0.24-0.384-0.24-0.641V83.54
			c0-0.277,0.094-0.51,0.279-0.696c0.188-0.187,0.419-0.28,0.696-0.28c0.16,0,0.317,0.032,0.472,0.097
			c0.155,0.063,0.27,0.149,0.345,0.256l5.823,7.424v-6.88c0-0.256,0.083-0.47,0.248-0.641c0.166-0.17,0.377-0.256,0.633-0.256
			S68.79,82.649,68.949,82.819z"/>
		<path fill="#171617" d="M80.533,87.996c0.182,0.187,0.272,0.418,0.272,0.695v3.393c0,0.373-0.165,0.661-0.496,0.863
			c-1.046,0.651-2.192,0.977-3.439,0.977c-1.057,0-2.032-0.259-2.929-0.776c-0.896-0.517-1.605-1.216-2.128-2.096
			s-0.784-1.843-0.784-2.888c0-1.046,0.262-2.009,0.784-2.889s1.232-1.578,2.128-2.096c0.896-0.518,1.872-0.776,2.929-0.776
			c1.056,0,1.973,0.214,2.752,0.641c0.159,0.085,0.279,0.197,0.359,0.336s0.12,0.288,0.12,0.448c0,0.267-0.088,0.498-0.264,0.695
			s-0.393,0.296-0.648,0.296c-0.16,0-0.336-0.042-0.527-0.128c-0.576-0.245-1.174-0.368-1.792-0.368
			c-0.684,0-1.313,0.174-1.889,0.521s-1.032,0.813-1.368,1.4c-0.336,0.586-0.504,1.227-0.504,1.92s0.168,1.333,0.504,1.92
			s0.792,1.053,1.368,1.399s1.205,0.521,1.889,0.521c0.298,0,0.618-0.026,0.96-0.08c0.341-0.054,0.64-0.123,0.896-0.208v-2.08
			h-1.504c-0.277,0-0.51-0.091-0.696-0.272c-0.187-0.181-0.279-0.41-0.279-0.688s0.093-0.507,0.279-0.688
			c0.187-0.181,0.419-0.271,0.696-0.271h2.624C80.123,87.716,80.353,87.81,80.533,87.996z"/>
	</g>
</g>
<g>
	<rect x="28.478" y="16.898" fill="#828282" width="3.644" height="43.725"/>
	<rect x="39.408" y="16.898" fill="#3F403F" width="7.289" height="43.725"/>
	<rect x="57.628" y="16.898" fill="#454545" width="3.644" height="43.725"/>
	<rect x="68.559" y="16.898" fill="#333333" width="3.646" height="43.725"/>
	<rect x="50.341" y="16.898" fill="#2B2B2B" width="3.644" height="43.725"/>
	<path fill="none" stroke="#010101" stroke-width="4" stroke-miterlimit="10" d="M82.951,63.457c0,4.503-3.65,8.152-8.153,8.152
		H25.884c-4.501,0-8.152-3.649-8.152-8.152V14.543c0-4.502,3.651-8.153,8.152-8.153h48.914c4.503,0,8.153,3.65,8.153,8.153V63.457
		L82.951,63.457z"/>
</g>
</svg>
