<?xml version="1.0" encoding="utf-8"?>
<!-- Generator: Adobe Illustrator 16.0.0, SVG Export Plug-In . SVG Version: 6.00 Build 0)  -->
<!DOCTYPE svg PUBLIC "-//W3C//DTD SVG 1.1//EN" "http://www.w3.org/Graphics/SVG/1.1/DTD/svg11.dtd">
<svg version="1.1" id="Layer_1" xmlns="http://www.w3.org/2000/svg" xmlns:xlink="http://www.w3.org/1999/xlink" x="0px" y="0px"
	 width="100px" height="100px" viewBox="0 0 100 100" enable-background="new 0 0 100 100" xml:space="preserve">
<g>
	<g>
		<polygon fill="#6D2128" points="258.783,95.799 266.923,95.799 266.923,67.311 258.783,67.311 		"/>
		<polygon fill="#DD372D" points="288.291,94.273 280.15,95.799 275.188,67.705 283.203,66.291 		"/>
		<g>
			<polygon fill="#FFFFFF" points="260.818,79.01 264.889,79.01 264.889,70.87 260.818,70.87 			"/>
			<path fill="#FFFFFF" d="M264.889,91.729c0-1.123-0.91-2.035-2.035-2.035c-1.123,0-2.033,0.912-2.033,2.035
				c0,1.125,0.91,2.035,2.033,2.035C263.979,93.764,264.889,92.854,264.889,91.729"/>
		</g>
		<g>
			<polygon fill="#CDD1D3" points="260.818,77.484 264.889,77.484 264.889,76.467 260.818,76.467 			"/>
			<polygon fill="#CDD1D3" points="260.818,75.449 264.889,75.449 264.889,74.432 260.818,74.432 			"/>
			<polygon fill="#CDD1D3" points="260.818,73.414 264.889,73.414 264.889,72.396 260.818,72.396 			"/>
		</g>
		<polygon fill="#B12925" points="266.923,95.799 275.064,95.799 275.064,67.311 266.923,67.311 		"/>
		<g>
			<polygon fill="#FFFFFF" points="268.959,79.01 273.027,79.01 273.027,70.87 268.959,70.87 			"/>
			<path fill="#FFFFFF" d="M273.027,91.729c0-1.123-0.909-2.035-2.034-2.035c-1.124,0-2.034,0.912-2.034,2.035
				c0,1.125,0.91,2.035,2.034,2.035C272.118,93.764,273.027,92.854,273.027,91.729"/>
		</g>
		<g>
			<polygon fill="#CDD1D3" points="268.959,77.484 273.027,77.484 273.027,76.467 268.959,76.467 			"/>
			<polygon fill="#CDD1D3" points="268.959,75.449 273.027,75.449 273.027,74.432 268.959,74.432 			"/>
			<polygon fill="#CDD1D3" points="268.959,73.414 273.027,73.414 273.027,72.396 268.959,72.396 			"/>
		</g>
		<g>
			<polygon fill="#FFFFFF" points="283.232,78.169 279.225,78.875 277.811,70.859 281.818,70.152 			"/>
			<path fill="#FFFFFF" d="M285.441,90.693c-0.196-1.106-1.252-1.846-2.358-1.65c-1.106,0.196-1.847,1.251-1.651,2.357
				s1.252,1.846,2.357,1.65C284.896,92.855,285.636,91.801,285.441,90.693"/>
		</g>
		<g>
			<polygon fill="#CDD1D3" points="278.958,77.372 278.781,76.37 282.79,75.664 282.967,76.665 			"/>
			<polygon fill="#CDD1D3" points="278.604,75.367 278.43,74.366 282.438,73.66 282.613,74.661 			"/>
			<polygon fill="#CDD1D3" points="278.251,73.364 278.074,72.361 282.084,71.654 282.26,72.656 			"/>
		</g>
	</g>
	<path fill="none" stroke="#DD372D" stroke-width="3" stroke-miterlimit="10" d="M297.057,100.369c0,3.316-2.689,6.007-6.008,6.007
		h-36.04c-3.317,0-6.007-2.688-6.007-6.007v-36.04c0-3.317,2.689-6.007,6.007-6.007h36.04c3.317,0,6.008,2.688,6.008,6.007V100.369z
		"/>
</g>
<g>
	<g>
		<g>
			<polygon fill="#6D2128" points="31.258,57.207 42.276,57.207 42.276,18.641 31.258,18.641 			"/>
			<polygon fill="#DD372D" points="71.204,55.143 60.186,57.207 53.466,19.176 64.314,17.262 			"/>
			<g>
				<polygon fill="#FFFFFF" points="34.014,34.48 39.523,34.48 39.523,23.461 34.014,23.461 				"/>
				<path fill="#FFFFFF" d="M39.523,51.698c0-1.521-1.234-2.756-2.755-2.756c-1.52,0-2.753,1.234-2.753,2.756
					s1.233,2.754,2.753,2.754C38.289,54.452,39.523,53.221,39.523,51.698"/>
			</g>
			<g>
				<polygon fill="#CDD1D3" points="34.014,32.415 39.523,32.415 39.523,31.037 34.014,31.037 				"/>
				<polygon fill="#CDD1D3" points="34.014,29.659 39.523,29.659 39.523,28.282 34.014,28.282 				"/>
				<polygon fill="#CDD1D3" points="34.014,26.904 39.523,26.904 39.523,25.528 34.014,25.528 				"/>
			</g>
			<polygon fill="#B12925" points="42.276,57.207 53.298,57.207 53.298,18.641 42.276,18.641 			"/>
			<g>
				<polygon fill="#FFFFFF" points="45.033,34.48 50.541,34.48 50.541,23.461 45.033,23.461 				"/>
				<path fill="#FFFFFF" d="M50.541,51.698c0-1.521-1.231-2.756-2.754-2.756c-1.521,0-2.754,1.234-2.754,2.756
					s1.232,2.754,2.754,2.754C49.31,54.452,50.541,53.221,50.541,51.698"/>
			</g>
			<g>
				<polygon fill="#CDD1D3" points="45.033,32.415 50.541,32.415 50.541,31.037 45.033,31.037 				"/>
				<polygon fill="#CDD1D3" points="45.033,29.659 50.541,29.659 50.541,28.282 45.033,28.282 				"/>
				<polygon fill="#CDD1D3" points="45.033,26.904 50.541,26.904 50.541,25.528 45.033,25.528 				"/>
			</g>
			<g>
				<polygon fill="#FFFFFF" points="64.355,33.341 58.928,34.297 57.016,23.445 62.441,22.489 				"/>
				<path fill="#FFFFFF" d="M67.346,50.297c-0.266-1.498-1.693-2.499-3.193-2.235c-1.496,0.265-2.498,1.692-2.234,3.191
					c0.266,1.499,1.693,2.498,3.191,2.235C66.607,53.225,67.607,51.796,67.346,50.297"/>
			</g>
			<g>
				<polygon fill="#CDD1D3" points="58.57,32.263 58.33,30.906 63.756,29.95 63.996,31.305 				"/>
				<polygon fill="#CDD1D3" points="58.091,29.549 57.852,28.193 63.277,27.237 63.518,28.592 				"/>
				<polygon fill="#CDD1D3" points="57.611,26.837 57.372,25.481 62.8,24.523 63.039,25.879 				"/>
			</g>
		</g>
		<path fill="none" stroke="#DD372D" stroke-width="4" stroke-miterlimit="10" d="M83.066,63.396c0,4.488-3.641,8.131-8.129,8.131
			H26.147c-4.491,0-8.131-3.643-8.131-8.131V14.606c0-4.491,3.641-8.132,8.131-8.132h48.791c4.488,0,8.129,3.641,8.129,8.132V63.396
			z"/>
	</g>
	<g enable-background="new    ">
		<path fill="#171617" d="M37.542,83.308c0.72,0.496,1.269,1.168,1.648,2.016c0.378,0.849,0.568,1.795,0.568,2.841
			c0,1.045-0.189,1.991-0.568,2.84c-0.379,0.848-0.928,1.52-1.648,2.016s-1.582,0.744-2.584,0.744h-3.824
			c-0.277,0-0.509-0.093-0.696-0.28c-0.187-0.187-0.28-0.418-0.28-0.695V83.54c0-0.277,0.093-0.51,0.28-0.696s0.418-0.28,0.696-0.28
			h3.824C35.96,82.563,36.822,82.812,37.542,83.308z M36.958,90.859c0.48-0.709,0.72-1.607,0.72-2.695
			c0-1.089-0.243-1.987-0.728-2.696c-0.486-0.709-1.203-1.064-2.152-1.064h-2.64v7.521h2.64
			C35.758,91.924,36.478,91.569,36.958,90.859z"/>
		<path fill="#171617" d="M51.197,91.067c-0.469,0.88-1.117,1.576-1.943,2.088c-0.827,0.513-1.757,0.769-2.792,0.769
			s-1.965-0.256-2.792-0.769c-0.827-0.512-1.472-1.208-1.936-2.088s-0.696-1.848-0.696-2.903c0-1.057,0.232-2.024,0.696-2.904
			s1.109-1.576,1.936-2.088s1.757-0.769,2.792-0.769s1.965,0.257,2.792,0.769s1.475,1.208,1.943,2.088
			c0.47,0.88,0.705,1.848,0.705,2.904C51.902,89.22,51.667,90.188,51.197,91.067z M49.39,86.22c-0.288-0.581-0.688-1.043-1.2-1.384
			c-0.512-0.342-1.088-0.513-1.728-0.513c-0.651,0-1.229,0.168-1.736,0.505c-0.507,0.336-0.902,0.797-1.184,1.384
			c-0.283,0.587-0.424,1.237-0.424,1.952s0.141,1.365,0.424,1.951c0.282,0.587,0.677,1.049,1.184,1.385
			c0.506,0.336,1.085,0.504,1.736,0.504c0.64,0,1.216-0.171,1.728-0.513c0.512-0.341,0.912-0.802,1.2-1.384
			c0.288-0.581,0.432-1.229,0.432-1.943S49.678,86.801,49.39,86.22z"/>
		<path fill="#171617" d="M62.078,83.924c0,0.224-0.08,0.442-0.24,0.656c-0.17,0.224-0.389,0.336-0.656,0.336
			c-0.182,0-0.362-0.049-0.543-0.145c-0.523-0.245-1.089-0.368-1.697-0.368c-0.746,0-1.396,0.158-1.951,0.473
			s-0.982,0.757-1.28,1.328c-0.299,0.57-0.448,1.224-0.448,1.96c0,1.259,0.339,2.213,1.016,2.863
			c0.678,0.651,1.566,0.977,2.664,0.977c0.65,0,1.217-0.123,1.697-0.368c0.191-0.085,0.361-0.128,0.512-0.128
			c0.277,0,0.512,0.117,0.703,0.352c0.16,0.203,0.24,0.422,0.24,0.656c0,0.171-0.043,0.325-0.128,0.464s-0.208,0.246-0.368,0.32
			c-0.832,0.416-1.717,0.624-2.656,0.624c-1.045,0-2.005-0.222-2.879-0.664c-0.875-0.442-1.574-1.096-2.097-1.96
			s-0.784-1.909-0.784-3.136c0-1.089,0.248-2.064,0.744-2.929c0.496-0.863,1.182-1.538,2.057-2.023
			c0.874-0.485,1.861-0.729,2.959-0.729c0.949,0,1.83,0.208,2.641,0.624C61.912,83.278,62.078,83.551,62.078,83.924z"/>
		<path fill="#171617" d="M65.326,93.636c-0.598-0.192-1.158-0.518-1.681-0.976c-0.288-0.257-0.432-0.539-0.432-0.849
			c0-0.245,0.091-0.461,0.272-0.647c0.181-0.187,0.399-0.28,0.655-0.28c0.202,0,0.384,0.063,0.544,0.191
			c0.427,0.353,0.843,0.608,1.248,0.769s0.885,0.24,1.439,0.24c0.598,0,1.113-0.134,1.545-0.4s0.648-0.598,0.648-0.992
			c0-0.479-0.215-0.855-0.641-1.128c-0.427-0.271-1.104-0.478-2.032-0.616c-2.336-0.341-3.504-1.429-3.504-3.264
			c0-0.672,0.177-1.256,0.528-1.752s0.832-0.874,1.439-1.136c0.608-0.262,1.285-0.393,2.032-0.393c0.672,0,1.304,0.102,1.896,0.305
			c0.593,0.202,1.086,0.469,1.48,0.8c0.31,0.245,0.464,0.528,0.464,0.848c0,0.246-0.091,0.462-0.272,0.648
			c-0.181,0.187-0.395,0.279-0.639,0.279c-0.16,0-0.305-0.048-0.433-0.144c-0.277-0.224-0.664-0.43-1.16-0.616
			s-0.941-0.279-1.336-0.279c-0.672,0-1.192,0.125-1.56,0.376c-0.368,0.25-0.553,0.578-0.553,0.983c0,0.459,0.189,0.806,0.568,1.04
			c0.379,0.235,0.973,0.427,1.784,0.576c0.917,0.16,1.65,0.365,2.2,0.616c0.549,0.25,0.962,0.592,1.24,1.023
			c0.277,0.433,0.416,1.006,0.416,1.721c0,0.672-0.189,1.261-0.568,1.768s-0.883,0.896-1.512,1.168
			c-0.63,0.272-1.307,0.408-2.033,0.408C66.605,93.924,65.923,93.828,65.326,93.636z"/>
	</g>
</g>
</svg>
