<?xml version="1.0" encoding="utf-8"?>
<!-- Generator: Adobe Illustrator 16.0.0, SVG Export Plug-In . SVG Version: 6.00 Build 0)  -->
<!DOCTYPE svg PUBLIC "-//W3C//DTD SVG 1.1//EN" "http://www.w3.org/Graphics/SVG/1.1/DTD/svg11.dtd">
<svg version="1.1" id="Layer_1" xmlns="http://www.w3.org/2000/svg" xmlns:xlink="http://www.w3.org/1999/xlink" x="0px" y="0px"
	 width="500px" height="500px" viewBox="0 0 500 500" enable-background="new 0 0 500 500" xml:space="preserve">
<linearGradient id="SVGID_1_" gradientUnits="userSpaceOnUse" x1="100.502" y1="509.2168" x2="399.4979" y2="-8.6594">
	<stop  offset="0.1823" style="stop-color:#25215C"/>
	<stop  offset="0.2956" style="stop-color:#4D1E57"/>
	<stop  offset="0.429" style="stop-color:#7F224D"/>
	<stop  offset="0.5499" style="stop-color:#AA2240"/>
	<stop  offset="0.6538" style="stop-color:#CA2031"/>
	<stop  offset="0.7367" style="stop-color:#E12229"/>
	<stop  offset="0.7882" style="stop-color:#EC2227"/>
</linearGradient>
<path fill="none" stroke="url(#SVGID_1_)" stroke-width="13" stroke-miterlimit="10" d="M481.713,416.312
	c0,36.273-29.408,65.681-65.682,65.681H83.97c-36.276,0-65.684-29.407-65.684-65.681V84.245c0-36.273,29.408-65.681,65.684-65.681
	h332.062c36.273,0,65.682,29.408,65.682,65.681V416.312z"/>
<g>
	<path fill="#FAB9A8" d="M141.146,229.126h-6.586c-8.082,0-14.631-6.547-14.631-14.631v-13.942c0-8.08,6.547-14.626,14.631-14.626
		h6.586c7.214,0,13.059,5.849,13.059,13.063v17.074C154.205,223.277,148.36,229.126,141.146,229.126z"/>
	<path fill="#0BBCDA" d="M165.418,278.914H108.72V251.95c0-12.604,10.22-22.824,22.828-22.824h11.042
		c12.605,0,22.828,10.22,22.828,22.824V278.914L165.418,278.914z"/>
	<path fill="#FAB9A8" d="M349.629,229.126h-6.593c-8.08,0-14.627-6.547-14.627-14.631v-13.942c0-8.08,6.547-14.626,14.627-14.626
		h6.593c7.209,0,13.059,5.849,13.059,13.063v17.074C362.688,223.277,356.838,229.126,349.629,229.126z"/>
	<g>
		<path fill="#0BBCDA" d="M373.894,278.914h-56.691V251.95c0-12.604,10.22-22.824,22.823-22.824h11.045
			c12.608,0,22.823,10.22,22.823,22.824V278.914L373.894,278.914z"/>
		<path fill="#0BBCDA" d="M189.508,300.711v-32.232c0-18.538,16.92-28.159,35.567-28.159h32.466
			c18.646,0,35.571,9.621,35.571,28.159v32.232H189.508z"/>
	</g>
	<path fill="#FAB9A8" d="M243.266,240.319h-3.916c-12.392,0-20.025-10.039-20.025-22.431v-10.54
		c0-12.392,7.633-22.445,20.025-22.445h3.916c12.392,0,20.025,10.054,20.025,22.445v10.54
		C263.291,230.28,255.658,240.319,243.266,240.319z"/>
	<g>
		<polygon fill="#EDF0F1" points="260.543,240.319 241.306,270.538 222.074,240.319 		"/>
		<path fill="#EDF0F1" d="M319.474,277.531c9.606-14.672,15.194-32.219,15.194-51.063c0-51.563-41.799-93.357-93.362-93.357
			c-51.561,0-93.357,41.794-93.357,93.357s41.796,93.367,93.357,93.367c18.277,0,35.323-5.259,49.716-14.339l70.593,70.588
			l28.209-28.203L319.474,277.531z M241.306,292.722c-36.531,0-66.253-29.718-66.253-66.254c0-36.531,29.722-66.253,66.253-66.253
			c36.536,0,66.258,29.722,66.258,66.253C307.563,263.004,277.842,292.722,241.306,292.722z"/>
	</g>
	<g>
		<path fill="#231F20" d="M394.081,343.622l-58.683-58.679h38.495c3.33,0,6.024-2.703,6.024-6.029v-26.969
			c0-10.715-5.885-20.088-14.59-25.058c2.136-3.078,3.384-6.804,3.384-10.824V198.99c0-10.531-8.562-19.088-19.083-19.088h-6.589
			c-4.475,0-8.615,1.438-12.004,3.862c-16.001-33.489-50.202-56.678-89.73-56.678c-39.297,0-73.341,22.927-89.455,56.119
			c-3.055-2.078-6.739-3.303-10.704-3.303h-6.586c-11.389,0-20.656,9.26-20.656,20.651v13.942c0,4.506,1.458,8.679,3.918,12.085
			c-8.997,4.88-15.125,14.419-15.125,25.365v26.969c0,3.326,2.694,6.029,6.022,6.029h52.275
			c18.094,24.775,47.35,40.911,80.315,40.911c17.168,0,33.931-4.407,48.774-12.779l67.267,67.268
			c1.181,1.176,2.722,1.767,4.263,1.767c1.542,0,3.083-0.591,4.259-1.767l28.208-28.208
			C396.434,349.787,396.434,345.97,394.081,343.622z M367.874,272.89h-38.69c6.196-11.706,9.968-24.504,11.117-37.743h10.77
			c9.265,0,16.804,7.534,16.804,16.804V272.89L367.874,272.89z M343.04,191.942h6.589c3.875,0,7.038,3.163,7.038,7.047v17.074
			c0,3.884-3.159,7.039-7.038,7.039h-6.589c-0.843,0-1.653-0.126-2.424-0.352c-0.343-9.364-1.992-18.394-4.763-26.924
			C337.39,193.497,340.039,191.942,343.04,191.942z M125.952,200.553c0-4.74,3.86-8.611,8.609-8.611h6.586
			c2.444,0,4.594,1.252,5.86,3.149c-2.949,8.841-4.687,18.223-5.013,27.952c-0.282,0.031-0.561,0.059-0.847,0.059h-6.586
			c-4.749,0-8.609-3.862-8.609-8.607V200.553z M114.745,272.89v-20.944c0-9.265,7.536-16.799,16.803-16.799h10.758
			c1.178,13.532,5.076,26.303,11.148,37.743H114.745L114.745,272.89z M361.614,367.568l-66.329-66.33
			c-1.163-1.163-2.704-1.763-4.264-1.763c-1.108,0-2.217,0.302-3.208,0.933c-13.905,8.761-29.993,13.397-46.508,13.397
			c-48.154,0-87.335-39.181-87.335-87.338c0-48.152,39.181-87.333,87.335-87.333c48.157,0,87.338,39.181,87.338,87.333
			c0,17.042-4.916,33.566-14.208,47.765c-1.563,2.384-1.239,5.538,0.775,7.557l66.096,66.092L361.614,367.568z"/>
		<path fill="#231F20" d="M241.306,154.186c-39.854,0-72.275,32.426-72.275,72.282s32.421,72.278,72.275,72.278
			c39.856,0,72.283-32.422,72.283-72.278S281.162,154.186,241.306,154.186z M241.306,166.239c33.215,0,60.233,27.019,60.233,60.229
			c0,9.58-2.248,18.642-6.245,26.69c-5.466-9.959-16.435-16.736-30.61-18.439c2.951-4.624,4.633-10.373,4.633-16.831v-10.54
			c0-16.492-10.955-28.465-26.05-28.465h-3.916c-15.096,0-26.05,11.973-26.05,28.465v10.54c0,6.458,1.683,12.207,4.635,16.831
			c-14.179,1.703-25.149,8.48-30.61,18.439c-3.997-8.049-6.248-17.11-6.248-26.69C181.077,193.258,208.094,166.239,241.306,166.239z
			 M225.345,217.888v-10.54c0-8.174,4.328-16.416,14.005-16.416h3.916c9.674,0,14.005,8.242,14.005,16.416v10.54
			c0,8.161-4.331,16.416-14.005,16.416h-3.916C229.673,234.304,225.345,226.049,225.345,217.888z M249.568,246.349l-8.262,12.974
			l-8.257-12.974H249.568z M241.306,286.706c-18.209,0-34.553-8.13-45.608-20.94c1.411-11.418,11.748-17.483,23.326-19.021
			l17.202,27.032c1.108,1.735,3.025,2.785,5.08,2.785c2.062,0,3.977-1.05,5.083-2.785l17.2-27.032
			c11.581,1.537,21.917,7.603,23.332,19.021C275.863,278.576,259.516,286.706,241.306,286.706z"/>
		<path fill="#231F20" d="M241.306,113.333c3.33,0,6.027-2.694,6.027-6.02V95.867c0-3.33-2.697-6.024-6.027-6.024
			c-3.325,0-6.022,2.694-6.022,6.024v11.446C235.284,110.639,237.98,113.333,241.306,113.333z"/>
		<path fill="#231F20" d="M295.168,127.766c0.945,0.545,1.982,0.802,3.001,0.802c2.081,0,4.109-1.077,5.222-3.006l5.728-9.913
			c1.663-2.88,0.676-6.57-2.208-8.229c-2.884-1.667-6.561-0.671-8.228,2.208l-5.724,9.909
			C291.297,122.417,292.283,126.094,295.168,127.766z"/>
		<path fill="#231F20" d="M179.223,125.563c1.115,1.929,3.136,3.006,5.222,3.006c1.021,0,2.058-0.257,3.006-0.802
			c2.882-1.672,3.866-5.349,2.201-8.228l-5.721-9.909c-1.66-2.879-5.344-3.875-8.228-2.208c-2.877,1.658-3.866,5.349-2.204,8.229
			L179.223,125.563z"/>
	</g>
</g>
<g>
	<path fill="#333333" d="M130.967,400.357h-10.07v-48.463h10.07v19.398h20.105v-19.398h10.07v48.463h-10.07v-19.365h-20.105V400.357
		z"/>
	<path fill="#333333" d="M180.546,400.357h-10.07v-48.463h20.141c1.847,0,3.625,0.23,5.333,0.692s3.304,1.115,4.79,1.96
		c1.485,0.845,2.842,1.859,4.07,3.042s2.281,2.495,3.158,3.938c0.877,1.441,1.555,2.985,2.035,4.63
		c0.479,1.645,0.719,3.357,0.719,5.137c0,1.668-0.217,3.29-0.649,4.866c-0.433,1.578-1.053,3.076-1.86,4.495
		c-0.807,1.42-1.795,2.727-2.965,3.921c-1.17,1.194-2.48,2.23-3.93,3.108l5.579,12.674h-10.702l-4.386-9.767l-11.263,0.067V400.357z
		 M180.546,361.594v19.398h10.07c1.38,0,2.678-0.253,3.895-0.76c1.216-0.508,2.281-1.2,3.193-2.079s1.632-1.909,2.158-3.092
		c0.526-1.184,0.789-2.438,0.789-3.769c0-1.329-0.263-2.585-0.789-3.769c-0.526-1.183-1.246-2.213-2.158-3.092
		s-1.977-1.571-3.193-2.078c-1.217-0.508-2.515-0.761-3.895-0.761H180.546z"/>
	<path fill="#333333" d="M267.248,400.357h-10.035V365.75c0-0.676-0.135-1.306-0.403-1.892c-0.27-0.586-0.632-1.099-1.088-1.538
		s-0.989-0.782-1.597-1.031c-0.608-0.247-1.264-0.371-1.965-0.371c-0.702,0-1.357,0.124-1.965,0.371
		c-0.609,0.249-1.141,0.592-1.597,1.031s-0.813,0.952-1.07,1.538c-0.258,0.586-0.386,1.216-0.386,1.892v34.607h-10.07V365.75
		c0-0.676-0.129-1.306-0.386-1.892c-0.258-0.586-0.614-1.099-1.07-1.538s-0.988-0.782-1.597-1.031
		c-0.608-0.247-1.263-0.371-1.965-0.371s-1.357,0.124-1.965,0.371c-0.608,0.249-1.14,0.592-1.597,1.031
		c-0.456,0.439-0.813,0.952-1.07,1.538c-0.258,0.586-0.386,1.216-0.386,1.892v34.607h-10.07V365.75c0-2.005,0.391-3.892,1.175-5.66
		c0.783-1.769,1.86-3.313,3.228-4.63c1.369-1.318,2.97-2.354,4.807-3.109c1.836-0.755,3.795-1.132,5.877-1.132
		c1.871,0,3.672,0.32,5.404,0.963c1.73,0.642,3.286,1.571,4.667,2.788c1.38-1.217,2.93-2.146,4.649-2.788
		c1.719-0.643,3.514-0.963,5.386-0.963c2.081,0,4.04,0.377,5.877,1.132c1.836,0.755,3.438,1.791,4.807,3.109
		c1.369,1.317,2.444,2.861,3.229,4.63c0.783,1.769,1.176,3.655,1.176,5.66V400.357z"/>
</g>
</svg>
