<?xml version="1.0" encoding="utf-8"?>
<!-- Generator: Adobe Illustrator 16.0.0, SVG Export Plug-In . SVG Version: 6.00 Build 0)  -->
<!DOCTYPE svg PUBLIC "-//W3C//DTD SVG 1.1//EN" "http://www.w3.org/Graphics/SVG/1.1/DTD/svg11.dtd">
<svg version="1.1" id="Layer_1" xmlns="http://www.w3.org/2000/svg" xmlns:xlink="http://www.w3.org/1999/xlink" x="0px" y="0px"
	 width="100px" height="100px" viewBox="0 0 100 100" enable-background="new 0 0 100 100" xml:space="preserve">
<g>
	<g>
		<polygon fill="#6D2128" points="258.783,95.799 266.923,95.799 266.923,67.311 258.783,67.311 		"/>
		<polygon fill="#DD372D" points="288.291,94.273 280.15,95.799 275.188,67.705 283.203,66.291 		"/>
		<g>
			<polygon fill="#FFFFFF" points="260.818,79.01 264.889,79.01 264.889,70.87 260.818,70.87 			"/>
			<path fill="#FFFFFF" d="M264.889,91.729c0-1.123-0.91-2.035-2.035-2.035c-1.123,0-2.033,0.912-2.033,2.035
				c0,1.125,0.91,2.035,2.033,2.035C263.979,93.764,264.889,92.854,264.889,91.729"/>
		</g>
		<g>
			<polygon fill="#CDD1D3" points="260.818,77.484 264.889,77.484 264.889,76.467 260.818,76.467 			"/>
			<polygon fill="#CDD1D3" points="260.818,75.449 264.889,75.449 264.889,74.432 260.818,74.432 			"/>
			<polygon fill="#CDD1D3" points="260.818,73.414 264.889,73.414 264.889,72.396 260.818,72.396 			"/>
		</g>
		<polygon fill="#B12925" points="266.923,95.799 275.064,95.799 275.064,67.311 266.923,67.311 		"/>
		<g>
			<polygon fill="#FFFFFF" points="268.959,79.01 273.027,79.01 273.027,70.87 268.959,70.87 			"/>
			<path fill="#FFFFFF" d="M273.027,91.729c0-1.123-0.909-2.035-2.034-2.035c-1.124,0-2.034,0.912-2.034,2.035
				c0,1.125,0.91,2.035,2.034,2.035C272.118,93.764,273.027,92.854,273.027,91.729"/>
		</g>
		<g>
			<polygon fill="#CDD1D3" points="268.959,77.484 273.027,77.484 273.027,76.467 268.959,76.467 			"/>
			<polygon fill="#CDD1D3" points="268.959,75.449 273.027,75.449 273.027,74.432 268.959,74.432 			"/>
			<polygon fill="#CDD1D3" points="268.959,73.414 273.027,73.414 273.027,72.396 268.959,72.396 			"/>
		</g>
		<g>
			<polygon fill="#FFFFFF" points="283.232,78.169 279.225,78.875 277.811,70.859 281.818,70.152 			"/>
			<path fill="#FFFFFF" d="M285.441,90.693c-0.196-1.106-1.252-1.846-2.358-1.65c-1.106,0.196-1.847,1.251-1.651,2.357
				s1.252,1.846,2.357,1.65C284.896,92.855,285.636,91.801,285.441,90.693"/>
		</g>
		<g>
			<polygon fill="#CDD1D3" points="278.958,77.372 278.781,76.37 282.79,75.664 282.967,76.665 			"/>
			<polygon fill="#CDD1D3" points="278.604,75.367 278.43,74.366 282.438,73.66 282.613,74.661 			"/>
			<polygon fill="#CDD1D3" points="278.251,73.364 278.074,72.361 282.084,71.654 282.26,72.656 			"/>
		</g>
	</g>
	<path fill="none" stroke="#DD372D" stroke-width="3" stroke-miterlimit="10" d="M297.057,100.369c0,3.316-2.689,6.007-6.008,6.007
		h-36.04c-3.317,0-6.007-2.688-6.007-6.007v-36.04c0-3.317,2.689-6.007,6.007-6.007h36.04c3.317,0,6.008,2.688,6.008,6.007V100.369z
		"/>
</g>
<g>
	<g enable-background="new    ">
		<path fill="#171617" d="M38.39,82.819c0.181,0.171,0.272,0.396,0.272,0.672c0,0.278-0.091,0.499-0.272,0.664
			c-0.182,0.166-0.416,0.248-0.704,0.248h-2.512v8.385c0,0.277-0.102,0.509-0.304,0.695c-0.203,0.188-0.454,0.28-0.752,0.28
			c-0.299,0-0.544-0.093-0.736-0.28c-0.192-0.187-0.288-0.418-0.288-0.695v-8.385h-2.512c-0.288,0-0.523-0.085-0.704-0.256
			c-0.182-0.17-0.272-0.395-0.272-0.672c0-0.267,0.093-0.485,0.28-0.656c0.187-0.17,0.419-0.256,0.696-0.256h7.104
			C37.974,82.563,38.208,82.649,38.39,82.819z"/>
		<path fill="#171617" d="M47.374,92.204c0.187,0.187,0.28,0.402,0.28,0.647c0,0.267-0.094,0.485-0.28,0.656
			s-0.418,0.256-0.696,0.256h-5.36c-0.277,0-0.509-0.093-0.696-0.28c-0.187-0.187-0.28-0.418-0.28-0.695V83.54
			c0-0.277,0.093-0.51,0.28-0.696s0.418-0.28,0.696-0.28h5.36c0.277,0,0.509,0.088,0.696,0.265c0.187,0.176,0.28,0.402,0.28,0.68
			c0,0.267-0.091,0.482-0.272,0.647c-0.182,0.166-0.416,0.248-0.704,0.248h-4.336v2.721h3.616c0.277,0,0.509,0.088,0.696,0.264
			c0.187,0.176,0.28,0.402,0.28,0.68c0,0.267-0.091,0.483-0.272,0.648c-0.182,0.165-0.416,0.248-0.704,0.248h-3.616v2.96h4.336
			C46.955,91.924,47.187,92.018,47.374,92.204z"/>
		<path fill="#171617" d="M58.357,92.899c0,0.277-0.09,0.504-0.271,0.681c-0.182,0.176-0.39,0.264-0.624,0.264
			c-0.192,0-0.365-0.059-0.521-0.176c-0.154-0.117-0.274-0.277-0.359-0.48l-0.832-1.936h-4.768l-0.833,1.952
			c-0.075,0.202-0.189,0.359-0.344,0.472c-0.155,0.112-0.323,0.168-0.504,0.168c-0.277,0-0.488-0.075-0.632-0.224
			c-0.144-0.149-0.216-0.353-0.216-0.608c0-0.096,0.016-0.197,0.048-0.304l3.984-9.568c0.085-0.213,0.213-0.379,0.384-0.496
			s0.362-0.165,0.575-0.144c0.193,0,0.371,0.056,0.537,0.168c0.164,0.111,0.285,0.27,0.359,0.472l3.936,9.376
			C58.331,92.654,58.357,92.782,58.357,92.899z M51.766,89.412h3.2l-1.616-3.744L51.766,89.412z"/>
		<path fill="#171617" d="M70.125,82.828c0.197,0.187,0.297,0.418,0.297,0.695v9.265c0,0.277-0.091,0.509-0.272,0.695
			c-0.181,0.188-0.421,0.28-0.72,0.28s-0.541-0.091-0.729-0.272c-0.187-0.181-0.279-0.416-0.279-0.703V86.34l-2.641,4.032
			c-0.106,0.128-0.229,0.231-0.367,0.312s-0.283,0.115-0.433,0.104c-0.139,0.011-0.277-0.024-0.416-0.104s-0.261-0.184-0.368-0.312
			l-2.64-4.177v6.593c0,0.287-0.085,0.522-0.256,0.703c-0.171,0.182-0.396,0.272-0.673,0.272c-0.266,0-0.484-0.093-0.655-0.28
			c-0.171-0.187-0.256-0.418-0.256-0.695v-9.265c0-0.267,0.099-0.496,0.296-0.688c0.197-0.192,0.435-0.288,0.712-0.288
			c0.16,0,0.319,0.04,0.479,0.12s0.283,0.184,0.369,0.312l3.487,5.36l3.584-5.36c0.085-0.128,0.2-0.231,0.345-0.312
			c0.144-0.08,0.29-0.12,0.439-0.12C69.696,82.548,69.928,82.642,70.125,82.828z"/>
	</g>
</g>
<g>
	<path fill="none" stroke="#5BA2D8" stroke-width="4" stroke-miterlimit="10" d="M82.982,63.457c0,4.504-3.649,8.152-8.152,8.152
		H25.916c-4.502,0-8.152-3.648-8.152-8.152V14.542c0-4.502,3.649-8.152,8.152-8.152H74.83c4.503,0,8.152,3.65,8.152,8.152V63.457z"
		/>
	<g>
		<g>
			<path fill="#5BA2D8" d="M64.887,24.608c-3.857-3.857-8.979-5.989-14.431-6.01c-0.028-0.001-0.054-0.001-0.081-0.001
				c-0.026,0-0.054,0-0.081,0.001c-5.452,0.021-10.575,2.153-14.432,6.01c-3.878,3.877-6.012,9.031-6.012,14.513
				c0,2.004,0.293,3.987,0.859,5.885c0.445-0.955,1.083-1.803,1.867-2.489c-0.212-1.112-0.321-2.25-0.321-3.396
				c0-1.821,0.271-3.579,0.774-5.238h9.937c-0.155,1.688-0.234,3.446-0.234,5.238c0,1.291,0.043,2.572,0.125,3.822
				c0.412,0.425,0.776,0.896,1.078,1.41c0.359-0.61,0.804-1.166,1.316-1.648c-0.075-1.172-0.114-2.369-0.114-3.584
				c0-1.8,0.083-3.558,0.244-5.238h9.988c0.16,1.68,0.244,3.438,0.244,5.238c0,1.215-0.039,2.413-0.114,3.584
				c0.512,0.482,0.958,1.038,1.315,1.648c0.304-0.514,0.666-0.985,1.08-1.41c0.08-1.25,0.123-2.531,0.123-3.822
				c0-1.792-0.08-3.549-0.232-5.238h9.938c0.502,1.659,0.773,3.417,0.773,5.238c0,1.146-0.109,2.284-0.323,3.396
				c0.782,0.686,1.425,1.534,1.867,2.489c0.565-1.898,0.858-3.881,0.858-5.885C70.898,33.64,68.766,28.485,64.887,24.608z
				 M44.679,25.078c-0.623,1.871-1.107,4.042-1.438,6.401h-9.292c2.331-4.989,6.87-8.75,12.35-10.015
				C45.737,22.375,45.187,23.556,44.679,25.078z M45.67,31.479c0.307-2.082,0.741-3.989,1.291-5.639
				c1.19-3.57,2.582-4.837,3.413-4.837s2.222,1.267,3.414,4.837c0.548,1.65,0.985,3.558,1.29,5.639H45.67L45.67,31.479z
				 M57.507,31.479c-0.33-2.359-0.815-4.53-1.438-6.401c-0.506-1.522-1.059-2.703-1.619-3.614
				c5.482,1.265,10.021,5.026,12.351,10.015H57.507z"/>
		</g>
	</g>
	<g>
		<g>
			<path fill="#0E3051" d="M66.854,51.701c0.907-0.916,1.471-2.175,1.471-3.562c0-2.794-2.274-5.067-5.067-5.067
				c-2.794,0-5.067,2.273-5.067,5.067c0,1.387,0.563,2.646,1.469,3.562c-1.157,0.621-2.137,1.527-2.842,2.631
				c-0.705-1.104-1.687-2.01-2.842-2.631c0.905-0.916,1.467-2.175,1.467-3.562c0-2.794-2.271-5.067-5.065-5.067
				s-5.067,2.273-5.067,5.067c0,1.387,0.562,2.646,1.468,3.562c-1.156,0.621-2.137,1.527-2.841,2.631
				c-0.706-1.104-1.687-2.01-2.843-2.631c0.907-0.916,1.469-2.175,1.469-3.562c0-2.794-2.274-5.067-5.068-5.067
				s-5.068,2.273-5.068,5.067c0,1.387,0.563,2.646,1.469,3.562c-2.405,1.29-4.044,3.828-4.044,6.742
				c0,0.662,0.539,1.203,1.202,1.203h12.882h12.879h12.883c0.664,0,1.201-0.541,1.201-1.203
				C70.898,55.529,69.26,52.991,66.854,51.701z"/>
		</g>
	</g>
</g>
</svg>
