<?xml version="1.0" encoding="utf-8"?>
<!-- Generator: Adobe Illustrator 16.0.0, SVG Export Plug-In . SVG Version: 6.00 Build 0)  -->
<!DOCTYPE svg PUBLIC "-//W3C//DTD SVG 1.1//EN" "http://www.w3.org/Graphics/SVG/1.1/DTD/svg11.dtd">
<svg version="1.1" id="Layer_1" xmlns="http://www.w3.org/2000/svg" xmlns:xlink="http://www.w3.org/1999/xlink" x="0px" y="0px"
	 width="500px" height="500px" viewBox="0 0 500 500" enable-background="new 0 0 500 500" xml:space="preserve">
<linearGradient id="SVGID_1_" gradientUnits="userSpaceOnUse" x1="249.9995" y1="488.4922" x2="249.9995" y2="12.0645">
	<stop  offset="0.1823" style="stop-color:#25215C"/>
	<stop  offset="0.2956" style="stop-color:#4D1E57"/>
	<stop  offset="0.429" style="stop-color:#7F224D"/>
	<stop  offset="0.5499" style="stop-color:#AA2240"/>
	<stop  offset="0.6538" style="stop-color:#CA2031"/>
	<stop  offset="0.7367" style="stop-color:#E12229"/>
	<stop  offset="0.7882" style="stop-color:#EC2227"/>
</linearGradient>
<path fill="none" stroke="url(#SVGID_1_)" stroke-width="13" stroke-miterlimit="10" d="M481.713,416.312
	c0,36.273-29.408,65.681-65.682,65.681H83.97c-36.276,0-65.684-29.407-65.684-65.681V84.245c0-36.273,29.408-65.681,65.684-65.681
	h332.062c36.273,0,65.682,29.408,65.682,65.681V416.312z"/>
<g>
	<g>
		<path fill="#84CEC3" d="M264.354,133.077v67.301c0,4.313-1.05,8.395-2.914,12.016h-35.912c-12.034,0-22.604,6.01-28.65,15.088
			h-17.36l-48.936,30.503l1.358-30.503h-26.487c-15.545,0-28.145-12.138-28.145-27.104v-67.301c0-14.98,12.6-27.118,28.145-27.118
			h130.751C251.747,105.959,264.354,118.097,264.354,133.077z"/>
		<path fill="#F1572F" d="M417.639,245.155v81.376c0,18.085-15.234,32.766-34.033,32.766h-94.103l-4.06,39.36l-24.313-23.928
			l-15.694-15.433h-19.909c-18.792,0-34.024-14.681-34.024-32.766v-81.376c0-6.508,1.973-12.568,5.37-17.673h0.004
			c6.056-9.079,16.616-15.088,28.65-15.088h158.078C402.404,212.394,417.639,227.066,417.639,245.155z"/>
		<path fill="#59C2AF" d="M94.408,200.378v-67.301c0-14.98,12.592-27.118,28.145-27.118h-17.101
			c-15.545,0-28.145,12.138-28.145,27.118v67.301c0,14.966,12.6,27.104,28.145,27.104h17.101
			C107,227.482,94.408,215.345,94.408,200.378z"/>
		<path fill="#E44928" d="M208.604,326.531v-81.376c0-6.508,1.973-12.568,5.365-17.673h0.009
			c6.051-9.079,16.621-15.088,28.645-15.088h-17.096c-12.034,0-22.604,6.01-28.65,15.088h-0.004
			c-3.396,5.105-5.37,11.165-5.37,17.673v81.376c0,18.085,15.231,32.766,34.024,32.766h17.096
			C223.84,359.297,208.604,344.616,208.604,326.531z"/>
		<g>
			<path fill="#333333" d="M105.453,233.366h20.117l-1.088,24.357c-0.095,2.209,1.088,4.268,3.062,5.368
				c0.955,0.521,2,0.773,3.039,0.773c1.159,0,2.313-0.321,3.317-0.946l47.417-29.552h6.001c-1.236,3.72-1.915,7.685-1.915,11.794
				v81.358c0,21.32,18.001,38.658,40.125,38.658h17.342l38.22,37.6c1.167,1.145,2.751,1.77,4.354,1.77
				c0.692,0,1.367-0.108,2.036-0.344c2.245-0.742,3.82-2.68,4.056-4.97l3.503-34.056h88.567c22.13,0,40.138-17.338,40.138-38.658
				V245.16c0-21.307-18.008-38.649-40.138-38.649H269.857c0.394-2.005,0.597-4.046,0.597-6.132v-67.301
				c0-18.193-15.36-32.997-34.25-32.997H105.453c-18.895,0-34.246,14.804-34.246,32.997v67.301
				C71.207,218.567,86.558,233.366,105.453,233.366z M383.605,218.277c15.396,0,27.923,12.056,27.923,26.882v81.358
				c0,14.826-12.526,26.887-27.923,26.887h-94.089c-3.146,0-5.775,2.3-6.083,5.309l-2.77,26.833l-30.865-30.367
				c-1.149-1.136-2.729-1.774-4.358-1.774h-19.913c-15.389,0-27.919-12.061-27.919-26.887V245.16
				c0-14.826,12.53-26.882,27.919-26.882H383.605L383.605,218.277L383.605,218.277z M83.411,133.077
				c0-11.708,9.886-21.23,22.042-21.23h130.751c12.151,0,22.04,9.526,22.04,21.23v67.301c0,2.104-0.316,4.159-0.937,6.132h-31.78
				c-12.918,0-24.427,5.919-31.781,15.088h-14.233c-1.184,0-2.329,0.326-3.322,0.946l-39,24.316l0.853-19.125
				c0.075-1.602-0.55-3.159-1.688-4.317c-1.149-1.159-2.747-1.819-4.417-1.819h-26.487c-12.156,0-22.042-9.513-22.042-21.221
				V133.077z"/>
		</g>
	</g>
	<g>
		<path fill="#333333" d="M140.814,181.447c-2.352,1.946-4.981,3.439-7.896,4.48c-2.912,1.041-5.931,1.562-9.056,1.562
			c-2.396,0-4.705-0.303-6.924-0.901c-2.22-0.597-4.299-1.448-6.239-2.543c-1.937-1.095-3.707-2.417-5.302-3.955
			c-1.6-1.539-2.966-3.241-4.107-5.105c-1.138-1.874-2.021-3.874-2.643-6.01s-0.932-4.363-0.932-6.671s0.31-4.535,0.932-6.689
			c0.622-2.145,1.505-4.155,2.643-6.019c1.141-1.874,2.507-3.575,4.107-5.114c1.595-1.539,3.365-2.851,5.302-3.955
			c1.939-1.095,4.019-1.941,6.239-2.543c2.22-0.598,4.528-0.896,6.924-0.896c3.125,0,6.144,0.516,9.056,1.539
			c2.915,1.032,5.544,2.534,7.896,4.499l-5.356,8.49c-1.482-1.539-3.231-2.725-5.252-3.548s-4.134-1.24-6.343-1.24
			c-2.233,0-4.322,0.407-6.272,1.222c-1.951,0.814-3.655,1.919-5.109,3.313c-1.458,1.385-2.609,3.032-3.453,4.915
			c-0.847,1.892-1.27,3.901-1.27,6.028s0.423,4.127,1.27,5.992c0.844,1.864,1.996,3.503,3.453,4.906
			c1.455,1.403,3.159,2.507,5.109,3.322c1.95,0.814,4.039,1.222,6.272,1.222c2.208,0,4.322-0.407,6.343-1.24
			c2.021-0.824,3.77-2.005,5.252-3.543L140.814,181.447z"/>
		<path fill="#333333" d="M156.778,186.435h-10.115v-48.669h20.228c1.855,0,3.643,0.23,5.356,0.697
			c1.715,0.462,3.32,1.113,4.811,1.964c1.491,0.851,2.855,1.864,4.089,3.06c1.233,1.186,2.29,2.502,3.17,3.951
			c0.882,1.448,1.563,3,2.045,4.648c0.48,1.656,0.722,3.376,0.722,5.159c0,1.674-0.217,3.304-0.651,4.888
			c-0.435,1.584-1.057,3.091-1.869,4.517c-0.81,1.426-1.804,2.738-2.978,3.938s-2.489,2.24-3.946,3.123l5.603,12.726h-10.746
			l-4.406-9.807l-11.312,0.068V186.435z M156.778,147.505v19.483h10.113c1.387,0,2.69-0.258,3.913-0.765
			c1.222-0.507,2.29-1.204,3.206-2.086c0.917-0.883,1.639-1.915,2.168-3.109c0.529-1.186,0.792-2.444,0.792-3.783
			c0-1.331-0.263-2.598-0.792-3.784c-0.529-1.186-1.251-2.222-2.168-3.104c-0.916-0.882-1.984-1.575-3.206-2.091
			c-1.222-0.507-2.525-0.76-3.913-0.76H156.778z"/>
		<path fill="#333333" d="M243.854,186.435h-10.079v-34.757c0-0.679-0.136-1.313-0.405-1.901c-0.27-0.588-0.634-1.104-1.093-1.539
			c-0.457-0.444-0.991-0.788-1.602-1.041c-0.611-0.245-1.27-0.371-1.973-0.371c-0.706,0-1.364,0.126-1.975,0.371
			c-0.611,0.253-1.146,0.597-1.603,1.041c-0.459,0.434-0.817,0.95-1.075,1.539s-0.387,1.222-0.387,1.901v34.757h-10.115v-34.757
			c0-0.679-0.129-1.313-0.387-1.901c-0.26-0.588-0.618-1.104-1.075-1.539c-0.459-0.444-0.994-0.788-1.604-1.041
			c-0.611-0.245-1.267-0.371-1.973-0.371c-0.704,0-1.362,0.126-1.973,0.371c-0.611,0.253-1.145,0.597-1.604,1.041
			c-0.457,0.434-0.817,0.95-1.075,1.539c-0.258,0.588-0.387,1.222-0.387,1.901v34.757h-10.112v-34.757
			c0-2.01,0.391-3.906,1.179-5.685c0.788-1.774,1.869-3.322,3.243-4.652c1.374-1.321,2.982-2.362,4.829-3.123
			c1.842-0.751,3.811-1.131,5.902-1.131c1.88,0,3.688,0.316,5.426,0.968c1.74,0.643,3.301,1.575,4.688,2.797
			c1.385-1.222,2.941-2.154,4.668-2.797c1.727-0.652,3.53-0.968,5.411-0.968c2.091,0,4.057,0.38,5.901,1.131
			c1.844,0.76,3.453,1.801,4.829,3.123c1.374,1.331,2.453,2.878,3.24,4.652c0.788,1.779,1.181,3.675,1.181,5.685V186.435z"/>
	</g>
	<g>
		<g>
			<path fill="#E6E6E5" d="M277.56,309.189c1.991,1.873,2.358,4.684,1.118,6.91c-0.29,0.507-0.666,0.991-1.118,1.421
				c-2.457,2.309-6.444,2.309-8.902,0c-2.452-2.304-2.452-6.028,0-8.331c0.548-0.503,1.163-0.905,1.829-1.195
				C272.816,307.003,275.646,307.401,277.56,309.189z"/>
			<path fill="#E6E6E5" d="M286.684,317.733c2.453,2.308,2.453,6.042,0,8.346c-2.453,2.299-6.436,2.299-8.897,0
				c-2.453-2.304-2.453-6.038,0-8.346c0.548-0.502,1.177-0.9,1.828-1.177C281.94,315.552,284.769,315.95,286.684,317.733z"/>
			<path fill="#E6E6E5" d="M295.59,326.079c1.887,1.77,2.317,4.403,1.276,6.575c-0.304,0.629-0.729,1.235-1.276,1.742
				c-2.48,2.304-6.453,2.304-8.906,0c-2.453-2.28-2.453-6.019,0-8.317C289.137,323.775,293.109,323.775,295.59,326.079z"/>
			<path fill="#E6E6E5" d="M349.4,287.656c-1.281,6.688-4.734,12.889-9.902,17.731l-3.566,3.349l-27.516-25.77
				c-0.037-0.045-0.091-0.086-0.118-0.117c-0.027-0.019-0.045-0.041-0.063-0.055c-0.036-0.031-0.063-0.059-0.09-0.081
				c-0.055-0.055-0.077-0.072-0.077-0.072l-3.743-3.521l-9.246,8.662c-1.416,1.321-3.299,1.987-5.15,1.987
				c-1.859,0-3.725-0.666-5.146-1.987c-2.842-2.67-2.842-6.987,0-9.657l15.926-14.926c1.027-0.969,2.177-1.802,3.381-2.489
				c2.951-1.72,6.309-2.57,9.685-2.57c2.589,0,5.205,0.507,7.612,1.538c3.784,1.611,8.229,0.896,11.161-1.846l5.077-4.766
				l23.226,21.764l-0.253,0.24l-8.676,8.123C350.622,284.411,349.722,285.954,349.4,287.656z"/>
		</g>
		<polygon fill="#84CEC3" points="378.527,263.855 363.828,277.618 360.85,274.83 337.624,253.066 334.447,250.097 349.138,236.344 
					"/>
		<path fill="#F3F3F3" d="M328.6,317.005l1.811,1.706c1.113,1.041,1.666,2.408,1.666,3.783c0,1.367-0.553,2.733-1.666,3.783
			c-2.227,2.096-5.852,2.096-8.083,0l-4.281-4.009c1.082,1.04,1.62,2.39,1.62,3.737c0,1.367-0.552,2.743-1.665,3.784
			c-2.227,2.095-5.856,2.095-8.092,0l-5.499-5.159c2.223,2.091,2.223,5.471,0,7.576c-1.117,1.05-2.584,1.565-4.051,1.565
			c-1.23,0-2.471-0.362-3.493-1.118l0,0c1.041-2.172,0.61-4.806-1.276-6.575c-2.48-2.304-6.453-2.304-8.906,0
			c2.453-2.304,2.453-6.038,0-8.346c-1.915-1.783-4.743-2.182-7.069-1.177l-0.276-0.271l-0.194-0.181l-0.466-0.005
			c1.24-2.227,0.873-5.037-1.118-6.91c-1.914-1.788-4.743-2.187-7.073-1.195l-2.788-2.598c-5.118-4.797-8.531-10.907-9.857-17.537
			c-0.366-1.833-1.325-3.512-2.729-4.829l-5.987-5.584l27.692-25.937l7.757,7.264c2.77,2.579,6.87,3.344,10.536,2.09
			c1.529-0.52,3.132-0.777,4.752-0.777c1.421,0,2.851,0.208,4.227,0.624c-1.204,0.688-2.354,1.521-3.381,2.489l-15.926,14.926
			c-2.842,2.67-2.842,6.987,0,9.657c1.421,1.321,3.286,1.987,5.146,1.987c1.852,0,3.734-0.666,5.15-1.987l9.246-8.662l3.743,3.521
			c0,0,0.022,0.018,0.077,0.072c0.026,0.022,0.054,0.05,0.09,0.081c0.019,0.014,0.036,0.036,0.063,0.046
			c0.027,0.04,0.081,0.081,0.118,0.126l27.516,25.761l0.751,0.706c1.104,1.059,1.67,2.416,1.67,3.783
			c0,1.376-0.565,2.738-1.67,3.788C334.447,319.101,330.826,319.101,328.6,317.005z"/>
		<polygon fill="#D22027" points="276.817,251.51 249.125,277.446 246.545,279.858 231.848,266.104 264.553,235.448 
			279.257,249.224 		"/>
		<path fill="#333333" d="M380.396,262.561l-29.381-27.529c-0.945-0.892-2.467-0.892-3.435,0l-14.682,13.763
			c-0.457,0.43-0.715,1.009-0.715,1.602c0,0.602,0.258,1.172,0.715,1.602l1.462,1.376l-3.362,3.163
			c-2.19,2.041-5.58,2.594-8.445,1.385c-2.679-1.149-5.675-1.756-8.635-1.756c-3.508,0-6.942,0.842-9.997,2.398
			c-1.281-0.299-2.575-0.452-3.906-0.452c-1.9,0-3.778,0.316-5.575,0.923c-2.852,0.978-5.92,0.381-7.983-1.57l-6.051-5.661
			l0.725-0.675c0.457-0.434,0.701-1,0.701-1.606c0-0.598-0.244-1.172-0.701-1.598l-14.704-13.771c-0.933-0.882-2.476-0.882-3.413,0
			L230.3,264.797c-0.939,0.887-0.939,2.321,0,3.209l14.702,13.758c0.446,0.425,1.059,0.66,1.704,0.66c0.64,0,1.249-0.235,1.717-0.66
			l0.875-0.828l4.261,3.996c1.073,1.022,1.783,2.271,2.064,3.647c1.425,7.119,5.055,13.591,10.521,18.718l0.806,0.742
			c-1.538,1.53-2.398,3.525-2.398,5.621c0,2.182,0.905,4.231,2.566,5.771c1.697,1.579,3.924,2.385,6.154,2.385
			c0.146,0,0.276-0.014,0.421-0.014c-0.112,2.223,0.738,4.489,2.553,6.178c1.643,1.539,3.824,2.395,6.146,2.395
			c0.077,0,0.137-0.005,0.199-0.005c-0.045,2.146,0.797,4.309,2.544,5.946c1.647,1.539,3.824,2.381,6.154,2.381
			c2.34,0,4.508-0.842,6.164-2.381c0.136-0.117,0.271-0.271,0.39-0.407c0.859,0.29,1.765,0.426,2.688,0.426
			c2.172,0,4.218-0.783,5.747-2.223c0.819-0.765,1.443-1.665,1.833-2.651l0.258,0.23c1.575,1.484,3.671,2.227,5.748,2.227
			c2.081,0,4.173-0.742,5.757-2.227c0.837-0.792,1.471-1.711,1.873-2.733c1.426,0.969,3.096,1.443,4.774,1.443
			c2.087,0,4.178-0.737,5.762-2.213c1.538-1.443,2.38-3.367,2.38-5.395c0-0.615-0.081-1.217-0.226-1.801
			c1.548-0.308,2.964-1.005,4.113-2.082c1.525-1.443,2.386-3.35,2.386-5.386c0-1.602-0.525-3.122-1.508-4.417l1.951-1.811
			c5.521-5.186,9.178-11.739,10.563-18.953c0.23-1.204,0.878-2.326,1.855-3.24l7.223-6.766l1.268,1.181
			c0.462,0.452,1.091,0.67,1.706,0.67c0.625,0,1.235-0.218,1.716-0.67l14.686-13.753c0.457-0.431,0.711-1.001,0.711-1.603
			S380.854,262.981,380.396,262.561z M235.441,266.403l29.283-27.439l11.27,10.559l-29.288,27.443L235.441,266.403z M270.536,316.23
			c-0.733-0.692-1.141-1.606-1.141-2.57c0-0.973,0.407-1.873,1.141-2.562c0.751-0.706,1.756-1.059,2.737-1.059
			c1,0,1.987,0.353,2.729,1.059c1.512,1.412,1.512,3.72,0,5.132C274.496,317.634,272.047,317.634,270.536,316.23z M282.393,325.839
			c-1.031,0-1.991-0.38-2.733-1.063c-1.502-1.412-1.502-3.711,0-5.128c0.761-0.696,1.743-1.059,2.733-1.059
			c0.996,0,1.982,0.362,2.743,1.059c1.512,1.417,1.512,3.716,0,5.128C284.411,325.459,283.43,325.839,282.393,325.839z
			 M294.023,333.111c-0.724,0.684-1.696,1.051-2.733,1.051c-1.031,0-2.009-0.367-2.733-1.051c-1.512-1.421-1.512-3.715,0-5.132
			c0.747-0.71,1.742-1.068,2.733-1.068c0.987,0,1.982,0.358,2.733,1.068C295.535,329.396,295.535,331.69,294.023,333.111z
			 M335.117,315.706c-0.606,0.579-1.439,0.9-2.317,0.9s-1.711-0.321-2.335-0.9l-23.466-21.995c-0.95-0.878-2.476-0.878-3.426,0
			c-0.946,0.9-0.946,2.326,0,3.213l25.289,23.688c0.625,0.58,0.95,1.358,0.95,2.182c0,0.824-0.325,1.603-0.95,2.182
			c-1.294,1.213-3.385,1.213-4.67,0l-4.259-3.992c-0.032-0.022-0.045-0.054-0.077-0.072c-0.009-0.009-0.009-0.009-0.019-0.018
			l-19.609-18.365c-0.945-0.887-2.476-0.887-3.421,0c-0.946,0.887-0.946,2.321,0,3.199l19.668,18.424
			c0.603,0.58,0.924,1.35,0.924,2.164c0,0.818-0.335,1.593-0.946,2.172c-1.294,1.204-3.381,1.204-4.661,0l-21.343-19.977
			c-0.941-0.882-2.48-0.882-3.418,0c-0.937,0.883-0.937,2.317,0,3.204l15.817,14.826c0.005,0,0.005,0.005,0.01,0.005
			c0.624,0.584,0.968,1.34,0.968,2.177c0,0.823-0.348,1.589-0.973,2.177c-0.625,0.584-1.453,0.91-2.321,0.91
			c-0.218,0-0.435-0.027-0.634-0.06c0.398-2.466-0.426-5.073-2.444-6.974c-1.656-1.543-3.837-2.39-6.164-2.39
			c-0.059,0-0.126,0.005-0.198,0.005c0.054-2.146-0.793-4.313-2.535-5.947c-1.651-1.538-3.833-2.394-6.164-2.394
			c-0.145,0-0.28,0-0.425,0.009c0.108-2.218-0.733-4.48-2.544-6.173c-2.19-2.055-5.295-2.783-8.119-2.173l-1.737-1.62
			c-4.771-4.48-7.956-10.128-9.188-16.337c-0.452-2.286-1.629-4.372-3.398-6.028l-4.266-3.992l24.273-22.737l6.046,5.676
			c2.322,2.182,5.485,3.331,8.735,3.331c1.438,0,2.914-0.227,4.321-0.716c0.693-0.226,1.395-0.394,2.123-0.497L283.23,276.83
			c-1.828,1.716-2.838,3.992-2.838,6.418c0,2.435,1.01,4.72,2.838,6.422c1.892,1.778,4.376,2.675,6.865,2.675
			c2.484,0,4.969-0.896,6.861-2.675l7.521-7.037l2.036,1.9v0.018l0.082,0.077l0.09,0.068l0,0l0,0
			c0.009,0.031,0.055,0.054,0.068,0.063l28.362,26.583c0.638,0.58,0.978,1.358,0.978,2.182
			C336.095,314.357,335.755,315.127,335.117,315.706z M350.368,281.891c-1.674,1.584-2.787,3.539-3.186,5.647
			c-1.218,6.309-4.399,12.024-9.241,16.555l-1.855,1.738l-15.307-14.333c0.335,0.019,0.67,0.031,1.005,0.031
			c1.548,0,3.142-0.258,4.726-0.854c1.226-0.467,1.818-1.797,1.316-2.956c-0.512-1.163-1.924-1.715-3.163-1.23
			c-6.214,2.371-13.686-4.204-14.51-4.965c-0.022-0.009-0.045-0.014-0.054-0.041l-0.091-0.081l0,0l-0.072-0.063l0,0l-2.032-1.91
			l2.308-2.163c0.938-0.887,0.938-2.326,0-3.208c-0.94-0.883-2.466-0.883-3.417,0l-4.019,3.761c0,0-0.009,0-0.014,0v0.009
			l-9.232,8.662c-1.887,1.765-4.982,1.765-6.883,0c-0.919-0.869-1.426-2.019-1.426-3.24c0-1.204,0.507-2.354,1.426-3.214
			l15.948-14.935c0.878-0.823,1.873-1.557,2.919-2.163c2.512-1.457,5.431-2.227,8.404-2.227c2.271,0,4.562,0.462,6.639,1.34
			c4.68,1.991,10.251,1.054,13.867-2.313l3.358-3.164l19.799,18.551L350.368,281.891z M363.995,274.713l-25.968-24.317
			l11.273-10.563l25.959,24.33L363.995,274.713z"/>
		<path fill="#333333" d="M366.435,263.629c1.34,0,2.408,1.01,2.408,2.263c0,1.254-1.068,2.268-2.408,2.268
			c-1.349,0-2.426-1.014-2.426-2.268C364.009,264.639,365.086,263.629,366.435,263.629z"/>
	</g>
</g>
</svg>
